<?xml version="1.0" encoding="UTF-8"?>
<!DOCTYPE svg PUBLIC "-//W3C//DTD SVG 1.1//EN" "http://www.w3.org/Graphics/SVG/1.1/DTD/svg11.dtd">
<svg xmlns="http://www.w3.org/2000/svg" version="1.1" width="469px" height="345px" style="shape-rendering:geometricPrecision; text-rendering:geometricPrecision; image-rendering:optimizeQuality; fill-rule:evenodd; clip-rule:evenodd" xmlns:xlink="http://www.w3.org/1999/xlink">
<g><path style="opacity:1" fill="#191818" d="M -0.5,-0.5 C 155.833,-0.5 312.167,-0.5 468.5,-0.5C 468.5,114.5 468.5,229.5 468.5,344.5C 312.167,344.5 155.833,344.5 -0.5,344.5C -0.5,229.5 -0.5,114.5 -0.5,-0.5 Z"/></g>
<g><path style="opacity:1" fill="#b9bdb9" d="M 10.5,11.5 C 11.8589,12.0065 12.8589,13.0065 13.5,14.5C 14.1667,13.5 14.8333,12.5 15.5,11.5C 16.3539,12.9479 17.3539,14.2813 18.5,15.5C 15.8333,16.8333 15.8333,18.1667 18.5,19.5C 17.675,20.3857 16.675,20.719 15.5,20.5C 15.0583,25.6945 14.0583,25.6945 12.5,20.5C 11.8333,21.8333 11.1667,23.1667 10.5,24.5C 9.75152,22.6675 8.75152,21.0009 7.5,19.5C 10.715,18.5522 11.0484,17.2189 8.5,15.5C 9.85318,14.4763 10.5198,13.143 10.5,11.5 Z"/></g>
<g><path style="opacity:1" fill="#233062" d="M 12.5,16.5 C 14.337,16.6395 14.6704,17.3061 13.5,18.5C 12.7025,18.0431 12.3691,17.3764 12.5,16.5 Z"/></g>
<g><path style="opacity:1" fill="#b9bdb9" d="M 32.5,11.5 C 33.8589,12.0065 34.8589,13.0065 35.5,14.5C 36.1667,13.5 36.8333,12.5 37.5,11.5C 38.3539,12.9479 39.3539,14.2813 40.5,15.5C 37.8333,16.8333 37.8333,18.1667 40.5,19.5C 39.675,20.3857 38.675,20.719 37.5,20.5C 37.0583,25.6945 36.0583,25.6945 34.5,20.5C 33.8333,21.8333 33.1667,23.1667 32.5,24.5C 31.7515,22.6675 30.7515,21.0009 29.5,19.5C 32.715,18.5522 33.0484,17.2189 30.5,15.5C 31.8532,14.4763 32.5198,13.143 32.5,11.5 Z"/></g>
<g><path style="opacity:1" fill="#233062" d="M 34.5,16.5 C 36.337,16.6395 36.6704,17.3061 35.5,18.5C 34.7025,18.0431 34.3691,17.3764 34.5,16.5 Z"/></g>
<g><path style="opacity:1" fill="#b9bdb9" d="M 54.5,11.5 C 55.8589,12.0065 56.8589,13.0065 57.5,14.5C 58.1667,13.5 58.8333,12.5 59.5,11.5C 60.3539,12.9479 61.3539,14.2813 62.5,15.5C 59.8333,16.8333 59.8333,18.1667 62.5,19.5C 61.675,20.3857 60.675,20.719 59.5,20.5C 59.0583,25.6945 58.0583,25.6945 56.5,20.5C 55.8333,21.8333 55.1667,23.1667 54.5,24.5C 53.7515,22.6675 52.7515,21.0009 51.5,19.5C 54.715,18.5522 55.0484,17.2189 52.5,15.5C 53.8532,14.4763 54.5198,13.143 54.5,11.5 Z"/></g>
<g><path style="opacity:1" fill="#233062" d="M 56.5,16.5 C 58.337,16.6395 58.6704,17.3061 57.5,18.5C 56.7025,18.0431 56.3691,17.3764 56.5,16.5 Z"/></g>
<g><path style="opacity:1" fill="#b9bdb9" d="M 76.5,11.5 C 77.8589,12.0065 78.8589,13.0065 79.5,14.5C 80.1667,13.5 80.8333,12.5 81.5,11.5C 82.3539,12.9479 83.3539,14.2813 84.5,15.5C 81.8333,16.8333 81.8333,18.1667 84.5,19.5C 83.675,20.3857 82.675,20.719 81.5,20.5C 81.0583,25.6945 80.0583,25.6945 78.5,20.5C 77.8333,21.8333 77.1667,23.1667 76.5,24.5C 75.7515,22.6675 74.7515,21.0009 73.5,19.5C 76.715,18.5522 77.0484,17.2189 74.5,15.5C 75.8532,14.4763 76.5198,13.143 76.5,11.5 Z"/></g>
<g><path style="opacity:1" fill="#233062" d="M 78.5,16.5 C 80.337,16.6395 80.6704,17.3061 79.5,18.5C 78.7025,18.0431 78.3691,17.3764 78.5,16.5 Z"/></g>
<g><path style="opacity:1" fill="#b9bdb9" d="M 98.5,11.5 C 99.8589,12.0065 100.859,13.0065 101.5,14.5C 102.167,13.5 102.833,12.5 103.5,11.5C 104.354,12.9479 105.354,14.2813 106.5,15.5C 103.833,16.8333 103.833,18.1667 106.5,19.5C 105.675,20.3857 104.675,20.719 103.5,20.5C 103.058,25.6945 102.058,25.6945 100.5,20.5C 99.8333,21.8333 99.1667,23.1667 98.5,24.5C 97.7515,22.6675 96.7515,21.0009 95.5,19.5C 98.715,18.5522 99.0484,17.2189 96.5,15.5C 97.8532,14.4763 98.5198,13.143 98.5,11.5 Z"/></g>
<g><path style="opacity:1" fill="#233062" d="M 100.5,16.5 C 102.337,16.6395 102.67,17.3061 101.5,18.5C 100.702,18.0431 100.369,17.3764 100.5,16.5 Z"/></g>
<g><path style="opacity:1" fill="#b9bdb9" d="M 120.5,11.5 C 121.859,12.0065 122.859,13.0065 123.5,14.5C 124.167,13.5 124.833,12.5 125.5,11.5C 126.354,12.9479 127.354,14.2813 128.5,15.5C 125.833,16.8333 125.833,18.1667 128.5,19.5C 127.675,20.3857 126.675,20.719 125.5,20.5C 125.058,25.6945 124.058,25.6945 122.5,20.5C 121.833,21.8333 121.167,23.1667 120.5,24.5C 119.752,22.6675 118.752,21.0009 117.5,19.5C 120.715,18.5522 121.048,17.2189 118.5,15.5C 119.853,14.4763 120.52,13.143 120.5,11.5 Z"/></g>
<g><path style="opacity:1" fill="#233062" d="M 122.5,16.5 C 124.337,16.6395 124.67,17.3061 123.5,18.5C 122.702,18.0431 122.369,17.3764 122.5,16.5 Z"/></g>
<g><path style="opacity:1" fill="#b9bdb9" d="M 142.5,11.5 C 143.859,12.0065 144.859,13.0065 145.5,14.5C 146.167,13.5 146.833,12.5 147.5,11.5C 148.354,12.9479 149.354,14.2813 150.5,15.5C 147.833,16.8333 147.833,18.1667 150.5,19.5C 149.675,20.3857 148.675,20.719 147.5,20.5C 147.058,25.6945 146.058,25.6945 144.5,20.5C 143.833,21.8333 143.167,23.1667 142.5,24.5C 141.752,22.6675 140.752,21.0009 139.5,19.5C 142.715,18.5522 143.048,17.2189 140.5,15.5C 141.853,14.4763 142.52,13.143 142.5,11.5 Z"/></g>
<g><path style="opacity:1" fill="#233062" d="M 144.5,16.5 C 146.337,16.6395 146.67,17.3061 145.5,18.5C 144.702,18.0431 144.369,17.3764 144.5,16.5 Z"/></g>
<g><path style="opacity:1" fill="#b9bdb9" d="M 164.5,11.5 C 165.859,12.0065 166.859,13.0065 167.5,14.5C 168.167,13.5 168.833,12.5 169.5,11.5C 170.354,12.9479 171.354,14.2813 172.5,15.5C 169.833,16.8333 169.833,18.1667 172.5,19.5C 171.675,20.3857 170.675,20.719 169.5,20.5C 169.058,25.6945 168.058,25.6945 166.5,20.5C 165.833,21.8333 165.167,23.1667 164.5,24.5C 163.752,22.6675 162.752,21.0009 161.5,19.5C 164.715,18.5522 165.048,17.2189 162.5,15.5C 163.853,14.4763 164.52,13.143 164.5,11.5 Z"/></g>
<g><path style="opacity:1" fill="#233062" d="M 166.5,16.5 C 168.337,16.6395 168.67,17.3061 167.5,18.5C 166.702,18.0431 166.369,17.3764 166.5,16.5 Z"/></g>
<g><path style="opacity:1" fill="#b9bdb9" d="M 186.5,11.5 C 187.859,12.0065 188.859,13.0065 189.5,14.5C 190.167,13.5 190.833,12.5 191.5,11.5C 192.354,12.9479 193.354,14.2813 194.5,15.5C 191.833,16.8333 191.833,18.1667 194.5,19.5C 193.675,20.3857 192.675,20.719 191.5,20.5C 191.058,25.6945 190.058,25.6945 188.5,20.5C 187.833,21.8333 187.167,23.1667 186.5,24.5C 185.752,22.6675 184.752,21.0009 183.5,19.5C 186.715,18.5522 187.048,17.2189 184.5,15.5C 185.853,14.4763 186.52,13.143 186.5,11.5 Z"/></g>
<g><path style="opacity:1" fill="#233062" d="M 188.5,16.5 C 190.337,16.6395 190.67,17.3061 189.5,18.5C 188.702,18.0431 188.369,17.3764 188.5,16.5 Z"/></g>
<g><path style="opacity:1" fill="#b9bdb9" d="M 208.5,11.5 C 209.859,12.0065 210.859,13.0065 211.5,14.5C 212.167,13.5 212.833,12.5 213.5,11.5C 214.354,12.9479 215.354,14.2813 216.5,15.5C 213.833,16.8333 213.833,18.1667 216.5,19.5C 215.675,20.3857 214.675,20.719 213.5,20.5C 213.058,25.6945 212.058,25.6945 210.5,20.5C 209.833,21.8333 209.167,23.1667 208.5,24.5C 207.752,22.6675 206.752,21.0009 205.5,19.5C 208.715,18.5522 209.048,17.2189 206.5,15.5C 207.853,14.4763 208.52,13.143 208.5,11.5 Z"/></g>
<g><path style="opacity:1" fill="#233062" d="M 210.5,16.5 C 212.337,16.6395 212.67,17.3061 211.5,18.5C 210.702,18.0431 210.369,17.3764 210.5,16.5 Z"/></g>
<g><path style="opacity:1" fill="#b9bdb9" d="M 230.5,11.5 C 231.859,12.0065 232.859,13.0065 233.5,14.5C 234.167,13.5 234.833,12.5 235.5,11.5C 236.354,12.9479 237.354,14.2813 238.5,15.5C 235.833,16.8333 235.833,18.1667 238.5,19.5C 237.675,20.3857 236.675,20.719 235.5,20.5C 235.058,25.6945 234.058,25.6945 232.5,20.5C 231.833,21.8333 231.167,23.1667 230.5,24.5C 229.752,22.6675 228.752,21.0009 227.5,19.5C 230.715,18.5522 231.048,17.2189 228.5,15.5C 229.853,14.4763 230.52,13.143 230.5,11.5 Z"/></g>
<g><path style="opacity:1" fill="#233062" d="M 232.5,16.5 C 234.337,16.6395 234.67,17.3061 233.5,18.5C 232.702,18.0431 232.369,17.3764 232.5,16.5 Z"/></g>
<g><path style="opacity:1" fill="#b9bdb9" d="M 252.5,11.5 C 253.859,12.0065 254.859,13.0065 255.5,14.5C 256.167,13.5 256.833,12.5 257.5,11.5C 258.354,12.9479 259.354,14.2813 260.5,15.5C 257.833,16.8333 257.833,18.1667 260.5,19.5C 259.675,20.3857 258.675,20.719 257.5,20.5C 257.058,25.6945 256.058,25.6945 254.5,20.5C 253.833,21.8333 253.167,23.1667 252.5,24.5C 251.752,22.6675 250.752,21.0009 249.5,19.5C 252.715,18.5522 253.048,17.2189 250.5,15.5C 251.853,14.4763 252.52,13.143 252.5,11.5 Z"/></g>
<g><path style="opacity:1" fill="#233062" d="M 254.5,16.5 C 256.337,16.6395 256.67,17.3061 255.5,18.5C 254.702,18.0431 254.369,17.3764 254.5,16.5 Z"/></g>
<g><path style="opacity:1" fill="#94abba" d="M 76.5,41.5 C 76.5,42.8333 76.5,44.1667 76.5,45.5C 74.439,44.2486 74.1057,42.5819 75.5,40.5C 76.1067,40.6236 76.44,40.9569 76.5,41.5 Z"/></g>
<g><path style="opacity:1" fill="#acb2b1" d="M 76.5,46.5 C 77.4584,46.9528 78.2917,47.6195 79,48.5C 79.4643,47.9056 79.631,47.2389 79.5,46.5C 81.0808,44.8583 81.7475,42.8583 81.5,40.5C 82.552,40.3505 83.552,40.5172 84.5,41C 83.8386,44.1368 82.5052,46.9701 80.5,49.5C 77.9364,50.5644 76.6031,49.5644 76.5,46.5 Z"/></g>
<g><path style="opacity:1" fill="#94abba" d="M 230.5,41.5 C 230.5,42.8333 230.5,44.1667 230.5,45.5C 228.439,44.2486 228.106,42.5819 229.5,40.5C 230.107,40.6236 230.44,40.9569 230.5,41.5 Z"/></g>
<g><path style="opacity:1" fill="#acb2b1" d="M 230.5,46.5 C 231.458,46.9528 232.292,47.6195 233,48.5C 233.464,47.9056 233.631,47.2389 233.5,46.5C 235.081,44.8583 235.747,42.8583 235.5,40.5C 236.552,40.3505 237.552,40.5172 238.5,41C 237.839,44.1368 236.505,46.9701 234.5,49.5C 231.936,50.5644 230.603,49.5644 230.5,46.5 Z"/></g>
<g><path style="opacity:1" fill="#b9bdb9" d="M 10.5,37.5 C 11.8589,38.0065 12.8589,39.0065 13.5,40.5C 14.1667,39.5 14.8333,38.5 15.5,37.5C 16.3539,38.9479 17.3539,40.2813 18.5,41.5C 15.8333,42.8333 15.8333,44.1667 18.5,45.5C 17.675,46.3857 16.675,46.719 15.5,46.5C 15.0583,51.6945 14.0583,51.6945 12.5,46.5C 11.8333,47.8333 11.1667,49.1667 10.5,50.5C 9.75152,48.6675 8.75152,47.0009 7.5,45.5C 10.715,44.5522 11.0484,43.2189 8.5,41.5C 9.85318,40.4763 10.5198,39.143 10.5,37.5 Z"/></g>
<g><path style="opacity:1" fill="#233062" d="M 12.5,42.5 C 14.337,42.6395 14.6704,43.3061 13.5,44.5C 12.7025,44.0431 12.3691,43.3764 12.5,42.5 Z"/></g>
<g><path style="opacity:1" fill="#b9bdb9" d="M 98.5,37.5 C 99.8589,38.0065 100.859,39.0065 101.5,40.5C 102.167,39.5 102.833,38.5 103.5,37.5C 104.354,38.9479 105.354,40.2813 106.5,41.5C 103.833,42.8333 103.833,44.1667 106.5,45.5C 105.675,46.3857 104.675,46.719 103.5,46.5C 103.058,51.6945 102.058,51.6945 100.5,46.5C 99.8333,47.8333 99.1667,49.1667 98.5,50.5C 97.7515,48.6675 96.7515,47.0009 95.5,45.5C 98.715,44.5522 99.0484,43.2189 96.5,41.5C 97.8532,40.4763 98.5198,39.143 98.5,37.5 Z"/></g>
<g><path style="opacity:1" fill="#233062" d="M 100.5,42.5 C 102.337,42.6395 102.67,43.3061 101.5,44.5C 100.702,44.0431 100.369,43.3764 100.5,42.5 Z"/></g>
<g><path style="opacity:1" fill="#b9bdb9" d="M 252.5,37.5 C 253.859,38.0065 254.859,39.0065 255.5,40.5C 256.167,39.5 256.833,38.5 257.5,37.5C 258.354,38.9479 259.354,40.2813 260.5,41.5C 257.833,42.8333 257.833,44.1667 260.5,45.5C 259.675,46.3857 258.675,46.719 257.5,46.5C 257.058,51.6945 256.058,51.6945 254.5,46.5C 253.833,47.8333 253.167,49.1667 252.5,50.5C 251.752,48.6675 250.752,47.0009 249.5,45.5C 252.715,44.5522 253.048,43.2189 250.5,41.5C 251.853,40.4763 252.52,39.143 252.5,37.5 Z"/></g>
<g><path style="opacity:1" fill="#233062" d="M 254.5,42.5 C 256.337,42.6395 256.67,43.3061 255.5,44.5C 254.702,44.0431 254.369,43.3764 254.5,42.5 Z"/></g>
<g><path style="opacity:1" fill="#b4b0a7" d="M 31.5,38.5 C 41.5319,41.861 41.8652,45.861 32.5,50.5C 31.479,49.9984 31.3123,49.3317 32,48.5C 33.9717,47.6948 35.4717,46.3615 36.5,44.5C 34.0929,43.0949 32.4262,41.0949 31.5,38.5 Z"/></g>
<g><path style="opacity:1" fill="#b4b0a7" d="M 53.5,38.5 C 63.5319,41.861 63.8652,45.861 54.5,50.5C 53.479,49.9984 53.3123,49.3317 54,48.5C 55.9717,47.6948 57.4717,46.3615 58.5,44.5C 56.0929,43.0949 54.4262,41.0949 53.5,38.5 Z"/></g>
<g><path style="opacity:1" fill="#b99770" d="M 76.5,41.5 C 77.6873,43.0725 78.6873,44.7392 79.5,46.5C 79.631,47.2389 79.4643,47.9056 79,48.5C 78.2917,47.6195 77.4584,46.9528 76.5,46.5C 76.5,46.1667 76.5,45.8333 76.5,45.5C 76.5,44.1667 76.5,42.8333 76.5,41.5 Z"/></g>
<g><path style="opacity:1" fill="#b4b0a7" d="M 119.5,38.5 C 129.532,41.861 129.865,45.861 120.5,50.5C 119.479,49.9984 119.312,49.3317 120,48.5C 121.972,47.6948 123.472,46.3615 124.5,44.5C 122.093,43.0949 120.426,41.0949 119.5,38.5 Z"/></g>
<g><path style="opacity:1" fill="#b4b0a7" d="M 141.5,38.5 C 151.532,41.861 151.865,45.861 142.5,50.5C 141.479,49.9984 141.312,49.3317 142,48.5C 143.972,47.6948 145.472,46.3615 146.5,44.5C 144.093,43.0949 142.426,41.0949 141.5,38.5 Z"/></g>
<g><path style="opacity:1" fill="#b4b0a7" d="M 163.5,38.5 C 173.532,41.861 173.865,45.861 164.5,50.5C 163.479,49.9984 163.312,49.3317 164,48.5C 165.972,47.6948 167.472,46.3615 168.5,44.5C 166.093,43.0949 164.426,41.0949 163.5,38.5 Z"/></g>
<g><path style="opacity:1" fill="#b4b0a7" d="M 185.5,38.5 C 195.532,41.861 195.865,45.861 186.5,50.5C 185.479,49.9984 185.312,49.3317 186,48.5C 187.972,47.6948 189.472,46.3615 190.5,44.5C 188.093,43.0949 186.426,41.0949 185.5,38.5 Z"/></g>
<g><path style="opacity:1" fill="#b4b0a7" d="M 207.5,38.5 C 217.532,41.861 217.865,45.861 208.5,50.5C 207.479,49.9984 207.312,49.3317 208,48.5C 209.972,47.6948 211.472,46.3615 212.5,44.5C 210.093,43.0949 208.426,41.0949 207.5,38.5 Z"/></g>
<g><path style="opacity:1" fill="#b99770" d="M 230.5,41.5 C 231.687,43.0725 232.687,44.7392 233.5,46.5C 233.631,47.2389 233.464,47.9056 233,48.5C 232.292,47.6195 231.458,46.9528 230.5,46.5C 230.5,46.1667 230.5,45.8333 230.5,45.5C 230.5,44.1667 230.5,42.8333 230.5,41.5 Z"/></g>
<g><path style="opacity:1" fill="#b2ada2" d="M 33.5,63.5 C 36.659,63.9168 38.659,65.7502 39.5,69C 39.1667,69.5 38.8333,70 38.5,70.5C 37.5,69.1667 36.5,67.8333 35.5,66.5C 34.4182,68.7837 32.7516,69.9504 30.5,70C 31.914,68.0065 32.914,65.8398 33.5,63.5 Z"/></g>
<g><path style="opacity:1" fill="#b2ada2" d="M 121.5,63.5 C 124.659,63.9168 126.659,65.7502 127.5,69C 127.167,69.5 126.833,70 126.5,70.5C 125.5,69.1667 124.5,67.8333 123.5,66.5C 122.418,68.7837 120.752,69.9504 118.5,70C 119.914,68.0065 120.914,65.8398 121.5,63.5 Z"/></g>
<g><path style="opacity:1" fill="#b9b2a9" d="M 10.5,63.5 C 12.5273,63.3379 14.5273,63.5045 16.5,64C 16.9574,64.414 17.2907,64.914 17.5,65.5C 15.5756,65.567 13.5756,65.9003 11.5,66.5C 13.306,68.6077 15.4727,70.2744 18,71.5C 18.7112,73.3668 18.2112,74.8668 16.5,76C 14.1667,76.6667 11.8333,76.6667 9.5,76C 9.04265,75.586 8.70931,75.086 8.5,74.5C 10.2388,74.4062 12.2388,74.2395 14.5,74C 14.9574,73.586 15.2907,73.086 15.5,72.5C 13.0918,71.5465 10.9251,70.2132 9,68.5C 8.38715,66.5048 8.88715,64.8381 10.5,63.5 Z"/></g>
<g><path style="opacity:1" fill="#94abba" d="M 76.5,67.5 C 76.5,68.8333 76.5,70.1667 76.5,71.5C 74.439,70.2486 74.1057,68.5819 75.5,66.5C 76.1067,66.6236 76.44,66.9569 76.5,67.5 Z"/></g>
<g><path style="opacity:1" fill="#acb2b1" d="M 76.5,72.5 C 77.4584,72.9528 78.2917,73.6195 79,74.5C 79.4643,73.9056 79.631,73.2389 79.5,72.5C 81.0808,70.8583 81.7475,68.8583 81.5,66.5C 82.552,66.3505 83.552,66.5172 84.5,67C 83.8386,70.1368 82.5052,72.9701 80.5,75.5C 77.9364,76.5644 76.6031,75.5644 76.5,72.5 Z"/></g>
<g><path style="opacity:1" fill="#94abba" d="M 230.5,67.5 C 230.5,68.8333 230.5,70.1667 230.5,71.5C 228.439,70.2486 228.106,68.5819 229.5,66.5C 230.107,66.6236 230.44,66.9569 230.5,67.5 Z"/></g>
<g><path style="opacity:1" fill="#acb2b1" d="M 230.5,72.5 C 231.458,72.9528 232.292,73.6195 233,74.5C 233.464,73.9056 233.631,73.2389 233.5,72.5C 235.081,70.8583 235.747,68.8583 235.5,66.5C 236.552,66.3505 237.552,66.5172 238.5,67C 237.839,70.1368 236.505,72.9701 234.5,75.5C 231.936,76.5644 230.603,75.5644 230.5,72.5 Z"/></g>
<g><path style="opacity:1" fill="#b9bdb9" d="M 54.5,63.5 C 55.8589,64.0065 56.8589,65.0065 57.5,66.5C 58.1667,65.5 58.8333,64.5 59.5,63.5C 60.3539,64.9479 61.3539,66.2813 62.5,67.5C 59.8333,68.8333 59.8333,70.1667 62.5,71.5C 61.675,72.3857 60.675,72.719 59.5,72.5C 59.0583,77.6945 58.0583,77.6945 56.5,72.5C 55.8333,73.8333 55.1667,75.1667 54.5,76.5C 53.7515,74.6675 52.7515,73.0009 51.5,71.5C 54.715,70.5522 55.0484,69.2189 52.5,67.5C 53.8532,66.4763 54.5198,65.143 54.5,63.5 Z"/></g>
<g><path style="opacity:1" fill="#233062" d="M 56.5,68.5 C 58.337,68.6395 58.6704,69.3061 57.5,70.5C 56.7025,70.0431 56.3691,69.3764 56.5,68.5 Z"/></g>
<g><path style="opacity:1" fill="#b9bdb9" d="M 98.5,63.5 C 99.8589,64.0065 100.859,65.0065 101.5,66.5C 102.167,65.5 102.833,64.5 103.5,63.5C 104.354,64.9479 105.354,66.2813 106.5,67.5C 103.833,68.8333 103.833,70.1667 106.5,71.5C 105.675,72.3857 104.675,72.719 103.5,72.5C 103.058,77.6945 102.058,77.6945 100.5,72.5C 99.8333,73.8333 99.1667,75.1667 98.5,76.5C 97.7515,74.6675 96.7515,73.0009 95.5,71.5C 98.715,70.5522 99.0484,69.2189 96.5,67.5C 97.8532,66.4763 98.5198,65.143 98.5,63.5 Z"/></g>
<g><path style="opacity:1" fill="#233062" d="M 100.5,68.5 C 102.337,68.6395 102.67,69.3061 101.5,70.5C 100.702,70.0431 100.369,69.3764 100.5,68.5 Z"/></g>
<g><path style="opacity:1" fill="#b9bdb9" d="M 142.5,63.5 C 143.859,64.0065 144.859,65.0065 145.5,66.5C 146.167,65.5 146.833,64.5 147.5,63.5C 148.354,64.9479 149.354,66.2813 150.5,67.5C 147.833,68.8333 147.833,70.1667 150.5,71.5C 149.675,72.3857 148.675,72.719 147.5,72.5C 147.058,77.6945 146.058,77.6945 144.5,72.5C 143.833,73.8333 143.167,75.1667 142.5,76.5C 141.752,74.6675 140.752,73.0009 139.5,71.5C 142.715,70.5522 143.048,69.2189 140.5,67.5C 141.853,66.4763 142.52,65.143 142.5,63.5 Z"/></g>
<g><path style="opacity:1" fill="#233062" d="M 144.5,68.5 C 146.337,68.6395 146.67,69.3061 145.5,70.5C 144.702,70.0431 144.369,69.3764 144.5,68.5 Z"/></g>
<g><path style="opacity:1" fill="#b9bdb9" d="M 164.5,63.5 C 165.859,64.0065 166.859,65.0065 167.5,66.5C 168.167,65.5 168.833,64.5 169.5,63.5C 170.354,64.9479 171.354,66.2813 172.5,67.5C 169.833,68.8333 169.833,70.1667 172.5,71.5C 171.675,72.3857 170.675,72.719 169.5,72.5C 169.058,77.6945 168.058,77.6945 166.5,72.5C 165.833,73.8333 165.167,75.1667 164.5,76.5C 163.752,74.6675 162.752,73.0009 161.5,71.5C 164.715,70.5522 165.048,69.2189 162.5,67.5C 163.853,66.4763 164.52,65.143 164.5,63.5 Z"/></g>
<g><path style="opacity:1" fill="#233062" d="M 166.5,68.5 C 168.337,68.6395 168.67,69.3061 167.5,70.5C 166.702,70.0431 166.369,69.3764 166.5,68.5 Z"/></g>
<g><path style="opacity:1" fill="#b9bdb9" d="M 186.5,63.5 C 187.859,64.0065 188.859,65.0065 189.5,66.5C 190.167,65.5 190.833,64.5 191.5,63.5C 192.354,64.9479 193.354,66.2813 194.5,67.5C 191.833,68.8333 191.833,70.1667 194.5,71.5C 193.675,72.3857 192.675,72.719 191.5,72.5C 191.058,77.6945 190.058,77.6945 188.5,72.5C 187.833,73.8333 187.167,75.1667 186.5,76.5C 185.752,74.6675 184.752,73.0009 183.5,71.5C 186.715,70.5522 187.048,69.2189 184.5,67.5C 185.853,66.4763 186.52,65.143 186.5,63.5 Z"/></g>
<g><path style="opacity:1" fill="#233062" d="M 188.5,68.5 C 190.337,68.6395 190.67,69.3061 189.5,70.5C 188.702,70.0431 188.369,69.3764 188.5,68.5 Z"/></g>
<g><path style="opacity:1" fill="#b9bdb9" d="M 208.5,63.5 C 209.859,64.0065 210.859,65.0065 211.5,66.5C 212.167,65.5 212.833,64.5 213.5,63.5C 214.354,64.9479 215.354,66.2813 216.5,67.5C 213.833,68.8333 213.833,70.1667 216.5,71.5C 215.675,72.3857 214.675,72.719 213.5,72.5C 213.058,77.6945 212.058,77.6945 210.5,72.5C 209.833,73.8333 209.167,75.1667 208.5,76.5C 207.752,74.6675 206.752,73.0009 205.5,71.5C 208.715,70.5522 209.048,69.2189 206.5,67.5C 207.853,66.4763 208.52,65.143 208.5,63.5 Z"/></g>
<g><path style="opacity:1" fill="#233062" d="M 210.5,68.5 C 212.337,68.6395 212.67,69.3061 211.5,70.5C 210.702,70.0431 210.369,69.3764 210.5,68.5 Z"/></g>
<g><path style="opacity:1" fill="#b9bdb9" d="M 252.5,63.5 C 253.859,64.0065 254.859,65.0065 255.5,66.5C 256.167,65.5 256.833,64.5 257.5,63.5C 258.354,64.9479 259.354,66.2813 260.5,67.5C 257.833,68.8333 257.833,70.1667 260.5,71.5C 259.675,72.3857 258.675,72.719 257.5,72.5C 257.058,77.6945 256.058,77.6945 254.5,72.5C 253.833,73.8333 253.167,75.1667 252.5,76.5C 251.752,74.6675 250.752,73.0009 249.5,71.5C 252.715,70.5522 253.048,69.2189 250.5,67.5C 251.853,66.4763 252.52,65.143 252.5,63.5 Z"/></g>
<g><path style="opacity:1" fill="#233062" d="M 254.5,68.5 C 256.337,68.6395 256.67,69.3061 255.5,70.5C 254.702,70.0431 254.369,69.3764 254.5,68.5 Z"/></g>
<g><path style="opacity:1" fill="#b99770" d="M 76.5,67.5 C 77.6873,69.0725 78.6873,70.7392 79.5,72.5C 79.631,73.2389 79.4643,73.9056 79,74.5C 78.2917,73.6195 77.4584,72.9528 76.5,72.5C 76.5,72.1667 76.5,71.8333 76.5,71.5C 76.5,70.1667 76.5,68.8333 76.5,67.5 Z"/></g>
<g><path style="opacity:1" fill="#b99770" d="M 230.5,67.5 C 231.687,69.0725 232.687,70.7392 233.5,72.5C 233.631,73.2389 233.464,73.9056 233,74.5C 232.292,73.6195 231.458,72.9528 230.5,72.5C 230.5,72.1667 230.5,71.8333 230.5,71.5C 230.5,70.1667 230.5,68.8333 230.5,67.5 Z"/></g>
<g><path style="opacity:1" fill="#b2ada2" d="M 121.5,89.5 C 124.659,89.9168 126.659,91.7502 127.5,95C 127.167,95.5 126.833,96 126.5,96.5C 125.5,95.1667 124.5,93.8333 123.5,92.5C 122.418,94.7837 120.752,95.9504 118.5,96C 119.914,94.0065 120.914,91.8398 121.5,89.5 Z"/></g>
<g><path style="opacity:1" fill="#94abba" d="M 76.5,93.5 C 76.5,94.8333 76.5,96.1667 76.5,97.5C 74.439,96.2486 74.1057,94.5819 75.5,92.5C 76.1067,92.6236 76.44,92.9569 76.5,93.5 Z"/></g>
<g><path style="opacity:1" fill="#acb2b1" d="M 76.5,98.5 C 77.4584,98.9528 78.2917,99.6195 79,100.5C 79.4643,99.9056 79.631,99.2389 79.5,98.5C 81.0808,96.8583 81.7475,94.8583 81.5,92.5C 82.552,92.3505 83.552,92.5172 84.5,93C 83.8386,96.1368 82.5052,98.9701 80.5,101.5C 77.9364,102.564 76.6031,101.564 76.5,98.5 Z"/></g>
<g><path style="opacity:1" fill="#94abba" d="M 230.5,93.5 C 230.5,94.8333 230.5,96.1667 230.5,97.5C 228.439,96.2486 228.106,94.5819 229.5,92.5C 230.107,92.6236 230.44,92.9569 230.5,93.5 Z"/></g>
<g><path style="opacity:1" fill="#acb2b1" d="M 230.5,98.5 C 231.458,98.9528 232.292,99.6195 233,100.5C 233.464,99.9056 233.631,99.2389 233.5,98.5C 235.081,96.8583 235.747,94.8583 235.5,92.5C 236.552,92.3505 237.552,92.5172 238.5,93C 237.839,96.1368 236.505,98.9701 234.5,101.5C 231.936,102.564 230.603,101.564 230.5,98.5 Z"/></g>
<g><path style="opacity:1" fill="#b9bdb9" d="M 10.5,89.5 C 11.8589,90.0065 12.8589,91.0065 13.5,92.5C 14.1667,91.5 14.8333,90.5 15.5,89.5C 16.3539,90.9479 17.3539,92.2813 18.5,93.5C 15.8333,94.8333 15.8333,96.1667 18.5,97.5C 17.675,98.3857 16.675,98.719 15.5,98.5C 15.0583,103.694 14.0583,103.694 12.5,98.5C 11.8333,99.8333 11.1667,101.167 10.5,102.5C 9.75152,100.668 8.75152,99.0009 7.5,97.5C 10.715,96.5522 11.0484,95.2189 8.5,93.5C 9.85318,92.4763 10.5198,91.143 10.5,89.5 Z"/></g>
<g><path style="opacity:1" fill="#233062" d="M 12.5,94.5 C 14.337,94.6395 14.6704,95.3061 13.5,96.5C 12.7025,96.0431 12.3691,95.3764 12.5,94.5 Z"/></g>
<g><path style="opacity:1" fill="#b9bdb9" d="M 32.5,89.5 C 33.8589,90.0065 34.8589,91.0065 35.5,92.5C 36.1667,91.5 36.8333,90.5 37.5,89.5C 38.3539,90.9479 39.3539,92.2813 40.5,93.5C 37.8333,94.8333 37.8333,96.1667 40.5,97.5C 39.675,98.3857 38.675,98.719 37.5,98.5C 37.0583,103.694 36.0583,103.694 34.5,98.5C 33.8333,99.8333 33.1667,101.167 32.5,102.5C 31.7515,100.668 30.7515,99.0009 29.5,97.5C 32.715,96.5522 33.0484,95.2189 30.5,93.5C 31.8532,92.4763 32.5198,91.143 32.5,89.5 Z"/></g>
<g><path style="opacity:1" fill="#233062" d="M 34.5,94.5 C 36.337,94.6395 36.6704,95.3061 35.5,96.5C 34.7025,96.0431 34.3691,95.3764 34.5,94.5 Z"/></g>
<g><path style="opacity:1" fill="#b9bdb9" d="M 54.5,89.5 C 55.8589,90.0065 56.8589,91.0065 57.5,92.5C 58.1667,91.5 58.8333,90.5 59.5,89.5C 60.3539,90.9479 61.3539,92.2813 62.5,93.5C 59.8333,94.8333 59.8333,96.1667 62.5,97.5C 61.675,98.3857 60.675,98.719 59.5,98.5C 59.0583,103.694 58.0583,103.694 56.5,98.5C 55.8333,99.8333 55.1667,101.167 54.5,102.5C 53.7515,100.668 52.7515,99.0009 51.5,97.5C 54.715,96.5522 55.0484,95.2189 52.5,93.5C 53.8532,92.4763 54.5198,91.143 54.5,89.5 Z"/></g>
<g><path style="opacity:1" fill="#233062" d="M 56.5,94.5 C 58.337,94.6395 58.6704,95.3061 57.5,96.5C 56.7025,96.0431 56.3691,95.3764 56.5,94.5 Z"/></g>
<g><path style="opacity:1" fill="#b9bdb9" d="M 98.5,89.5 C 99.8589,90.0065 100.859,91.0065 101.5,92.5C 102.167,91.5 102.833,90.5 103.5,89.5C 104.354,90.9479 105.354,92.2813 106.5,93.5C 103.833,94.8333 103.833,96.1667 106.5,97.5C 105.675,98.3857 104.675,98.719 103.5,98.5C 103.058,103.694 102.058,103.694 100.5,98.5C 99.8333,99.8333 99.1667,101.167 98.5,102.5C 97.7515,100.668 96.7515,99.0009 95.5,97.5C 98.715,96.5522 99.0484,95.2189 96.5,93.5C 97.8532,92.4763 98.5198,91.143 98.5,89.5 Z"/></g>
<g><path style="opacity:1" fill="#233062" d="M 100.5,94.5 C 102.337,94.6395 102.67,95.3061 101.5,96.5C 100.702,96.0431 100.369,95.3764 100.5,94.5 Z"/></g>
<g><path style="opacity:1" fill="#babeb9" d="M 147.5,90.5 C 148.043,90.56 148.376,90.8933 148.5,91.5C 147.167,93.1667 145.833,94.8333 144.5,96.5C 145.48,97.9814 146.647,99.3147 148,100.5C 148.667,101.167 148.667,101.833 148,102.5C 145.357,101.024 143.19,99.0237 141.5,96.5C 143.215,94.1182 145.215,92.1182 147.5,90.5 Z"/></g>
<g><path style="opacity:1" fill="#babeb9" d="M 169.5,90.5 C 170.043,90.56 170.376,90.8933 170.5,91.5C 169.167,93.1667 167.833,94.8333 166.5,96.5C 167.48,97.9814 168.647,99.3147 170,100.5C 170.667,101.167 170.667,101.833 170,102.5C 167.357,101.024 165.19,99.0237 163.5,96.5C 165.215,94.1182 167.215,92.1182 169.5,90.5 Z"/></g>
<g><path style="opacity:1" fill="#babeb9" d="M 191.5,90.5 C 192.043,90.56 192.376,90.8933 192.5,91.5C 191.167,93.1667 189.833,94.8333 188.5,96.5C 189.48,97.9814 190.647,99.3147 192,100.5C 192.667,101.167 192.667,101.833 192,102.5C 189.357,101.024 187.19,99.0237 185.5,96.5C 187.215,94.1182 189.215,92.1182 191.5,90.5 Z"/></g>
<g><path style="opacity:1" fill="#b9bdb9" d="M 208.5,89.5 C 209.859,90.0065 210.859,91.0065 211.5,92.5C 212.167,91.5 212.833,90.5 213.5,89.5C 214.354,90.9479 215.354,92.2813 216.5,93.5C 213.833,94.8333 213.833,96.1667 216.5,97.5C 215.675,98.3857 214.675,98.719 213.5,98.5C 213.058,103.694 212.058,103.694 210.5,98.5C 209.833,99.8333 209.167,101.167 208.5,102.5C 207.752,100.668 206.752,99.0009 205.5,97.5C 208.715,96.5522 209.048,95.2189 206.5,93.5C 207.853,92.4763 208.52,91.143 208.5,89.5 Z"/></g>
<g><path style="opacity:1" fill="#233062" d="M 210.5,94.5 C 212.337,94.6395 212.67,95.3061 211.5,96.5C 210.702,96.0431 210.369,95.3764 210.5,94.5 Z"/></g>
<g><path style="opacity:1" fill="#b9bdb9" d="M 252.5,89.5 C 253.859,90.0065 254.859,91.0065 255.5,92.5C 256.167,91.5 256.833,90.5 257.5,89.5C 258.354,90.9479 259.354,92.2813 260.5,93.5C 257.833,94.8333 257.833,96.1667 260.5,97.5C 259.675,98.3857 258.675,98.719 257.5,98.5C 257.058,103.694 256.058,103.694 254.5,98.5C 253.833,99.8333 253.167,101.167 252.5,102.5C 251.752,100.668 250.752,99.0009 249.5,97.5C 252.715,96.5522 253.048,95.2189 250.5,93.5C 251.853,92.4763 252.52,91.143 252.5,89.5 Z"/></g>
<g><path style="opacity:1" fill="#233062" d="M 254.5,94.5 C 256.337,94.6395 256.67,95.3061 255.5,96.5C 254.702,96.0431 254.369,95.3764 254.5,94.5 Z"/></g>
<g><path style="opacity:1" fill="#b99770" d="M 76.5,93.5 C 77.6873,95.0725 78.6873,96.7392 79.5,98.5C 79.631,99.2389 79.4643,99.9056 79,100.5C 78.2917,99.6195 77.4584,98.9528 76.5,98.5C 76.5,98.1667 76.5,97.8333 76.5,97.5C 76.5,96.1667 76.5,94.8333 76.5,93.5 Z"/></g>
<g><path style="opacity:1" fill="#b99770" d="M 230.5,93.5 C 231.687,95.0725 232.687,96.7392 233.5,98.5C 233.631,99.2389 233.464,99.9056 233,100.5C 232.292,99.6195 231.458,98.9528 230.5,98.5C 230.5,98.1667 230.5,97.8333 230.5,97.5C 230.5,96.1667 230.5,94.8333 230.5,93.5 Z"/></g>
<g><path style="opacity:1" fill="#b2ada2" d="M 187.5,115.5 C 190.659,115.917 192.659,117.75 193.5,121C 193.167,121.5 192.833,122 192.5,122.5C 191.5,121.167 190.5,119.833 189.5,118.5C 188.418,120.784 186.752,121.95 184.5,122C 185.914,120.007 186.914,117.84 187.5,115.5 Z"/></g>
<g><path style="opacity:1" fill="#94abba" d="M 98.5,119.5 C 98.5,120.833 98.5,122.167 98.5,123.5C 96.439,122.249 96.1057,120.582 97.5,118.5C 98.1067,118.624 98.44,118.957 98.5,119.5 Z"/></g>
<g><path style="opacity:1" fill="#acb2b1" d="M 98.5,124.5 C 99.4584,124.953 100.292,125.619 101,126.5C 101.464,125.906 101.631,125.239 101.5,124.5C 103.081,122.858 103.747,120.858 103.5,118.5C 104.552,118.351 105.552,118.517 106.5,119C 105.839,122.137 104.505,124.97 102.5,127.5C 99.9364,128.564 98.6031,127.564 98.5,124.5 Z"/></g>
<g><path style="opacity:1" fill="#94abba" d="M 230.5,119.5 C 230.5,120.833 230.5,122.167 230.5,123.5C 228.439,122.249 228.106,120.582 229.5,118.5C 230.107,118.624 230.44,118.957 230.5,119.5 Z"/></g>
<g><path style="opacity:1" fill="#acb2b1" d="M 230.5,124.5 C 231.458,124.953 232.292,125.619 233,126.5C 233.464,125.906 233.631,125.239 233.5,124.5C 235.081,122.858 235.747,120.858 235.5,118.5C 236.552,118.351 237.552,118.517 238.5,119C 237.839,122.137 236.505,124.97 234.5,127.5C 231.936,128.564 230.603,127.564 230.5,124.5 Z"/></g>
<g><path style="opacity:1" fill="#b9bdb9" d="M 10.5,115.5 C 11.8589,116.007 12.8589,117.007 13.5,118.5C 14.1667,117.5 14.8333,116.5 15.5,115.5C 16.3539,116.948 17.3539,118.281 18.5,119.5C 15.8333,120.833 15.8333,122.167 18.5,123.5C 17.675,124.386 16.675,124.719 15.5,124.5C 15.0583,129.694 14.0583,129.694 12.5,124.5C 11.8333,125.833 11.1667,127.167 10.5,128.5C 9.75152,126.668 8.75152,125.001 7.5,123.5C 10.715,122.552 11.0484,121.219 8.5,119.5C 9.85318,118.476 10.5198,117.143 10.5,115.5 Z"/></g>
<g><path style="opacity:1" fill="#233062" d="M 12.5,120.5 C 14.337,120.639 14.6704,121.306 13.5,122.5C 12.7025,122.043 12.3691,121.376 12.5,120.5 Z"/></g>
<g><path style="opacity:1" fill="#b9bdb9" d="M 120.5,115.5 C 121.859,116.007 122.859,117.007 123.5,118.5C 124.167,117.5 124.833,116.5 125.5,115.5C 126.354,116.948 127.354,118.281 128.5,119.5C 125.833,120.833 125.833,122.167 128.5,123.5C 127.675,124.386 126.675,124.719 125.5,124.5C 125.058,129.694 124.058,129.694 122.5,124.5C 121.833,125.833 121.167,127.167 120.5,128.5C 119.752,126.668 118.752,125.001 117.5,123.5C 120.715,122.552 121.048,121.219 118.5,119.5C 119.853,118.476 120.52,117.143 120.5,115.5 Z"/></g>
<g><path style="opacity:1" fill="#233062" d="M 122.5,120.5 C 124.337,120.639 124.67,121.306 123.5,122.5C 122.702,122.043 122.369,121.376 122.5,120.5 Z"/></g>
<g><path style="opacity:1" fill="#b9bdb9" d="M 142.5,115.5 C 143.859,116.007 144.859,117.007 145.5,118.5C 146.167,117.5 146.833,116.5 147.5,115.5C 148.354,116.948 149.354,118.281 150.5,119.5C 147.833,120.833 147.833,122.167 150.5,123.5C 149.675,124.386 148.675,124.719 147.5,124.5C 147.058,129.694 146.058,129.694 144.5,124.5C 143.833,125.833 143.167,127.167 142.5,128.5C 141.752,126.668 140.752,125.001 139.5,123.5C 142.715,122.552 143.048,121.219 140.5,119.5C 141.853,118.476 142.52,117.143 142.5,115.5 Z"/></g>
<g><path style="opacity:1" fill="#233062" d="M 144.5,120.5 C 146.337,120.639 146.67,121.306 145.5,122.5C 144.702,122.043 144.369,121.376 144.5,120.5 Z"/></g>
<g><path style="opacity:1" fill="#b9bdb9" d="M 164.5,115.5 C 165.859,116.007 166.859,117.007 167.5,118.5C 168.167,117.5 168.833,116.5 169.5,115.5C 170.354,116.948 171.354,118.281 172.5,119.5C 169.833,120.833 169.833,122.167 172.5,123.5C 171.675,124.386 170.675,124.719 169.5,124.5C 169.058,129.694 168.058,129.694 166.5,124.5C 165.833,125.833 165.167,127.167 164.5,128.5C 163.752,126.668 162.752,125.001 161.5,123.5C 164.715,122.552 165.048,121.219 162.5,119.5C 163.853,118.476 164.52,117.143 164.5,115.5 Z"/></g>
<g><path style="opacity:1" fill="#233062" d="M 166.5,120.5 C 168.337,120.639 168.67,121.306 167.5,122.5C 166.702,122.043 166.369,121.376 166.5,120.5 Z"/></g>
<g><path style="opacity:1" fill="#b9bdb9" d="M 208.5,115.5 C 209.859,116.007 210.859,117.007 211.5,118.5C 212.167,117.5 212.833,116.5 213.5,115.5C 214.354,116.948 215.354,118.281 216.5,119.5C 213.833,120.833 213.833,122.167 216.5,123.5C 215.675,124.386 214.675,124.719 213.5,124.5C 213.058,129.694 212.058,129.694 210.5,124.5C 209.833,125.833 209.167,127.167 208.5,128.5C 207.752,126.668 206.752,125.001 205.5,123.5C 208.715,122.552 209.048,121.219 206.5,119.5C 207.853,118.476 208.52,117.143 208.5,115.5 Z"/></g>
<g><path style="opacity:1" fill="#233062" d="M 210.5,120.5 C 212.337,120.639 212.67,121.306 211.5,122.5C 210.702,122.043 210.369,121.376 210.5,120.5 Z"/></g>
<g><path style="opacity:1" fill="#b9bdb9" d="M 252.5,115.5 C 253.859,116.007 254.859,117.007 255.5,118.5C 256.167,117.5 256.833,116.5 257.5,115.5C 258.354,116.948 259.354,118.281 260.5,119.5C 257.833,120.833 257.833,122.167 260.5,123.5C 259.675,124.386 258.675,124.719 257.5,124.5C 257.058,129.694 256.058,129.694 254.5,124.5C 253.833,125.833 253.167,127.167 252.5,128.5C 251.752,126.668 250.752,125.001 249.5,123.5C 252.715,122.552 253.048,121.219 250.5,119.5C 251.853,118.476 252.52,117.143 252.5,115.5 Z"/></g>
<g><path style="opacity:1" fill="#233062" d="M 254.5,120.5 C 256.337,120.639 256.67,121.306 255.5,122.5C 254.702,122.043 254.369,121.376 254.5,120.5 Z"/></g>
<g><path style="opacity:1" fill="#b4b0a7" d="M 75.5,116.5 C 85.5319,119.861 85.8652,123.861 76.5,128.5C 75.479,127.998 75.3123,127.332 76,126.5C 77.9717,125.695 79.4717,124.361 80.5,122.5C 78.0929,121.095 76.4262,119.095 75.5,116.5 Z"/></g>
<g><path style="opacity:1" fill="#b99770" d="M 98.5,119.5 C 99.6873,121.072 100.687,122.739 101.5,124.5C 101.631,125.239 101.464,125.906 101,126.5C 100.292,125.619 99.4584,124.953 98.5,124.5C 98.5,124.167 98.5,123.833 98.5,123.5C 98.5,122.167 98.5,120.833 98.5,119.5 Z"/></g>
<g><path style="opacity:1" fill="#b99770" d="M 230.5,119.5 C 231.687,121.072 232.687,122.739 233.5,124.5C 233.631,125.239 233.464,125.906 233,126.5C 232.292,125.619 231.458,124.953 230.5,124.5C 230.5,124.167 230.5,123.833 230.5,123.5C 230.5,122.167 230.5,120.833 230.5,119.5 Z"/></g>
<g><path style="opacity:1" fill="#b7ad9e" d="M 33.5,125.5 C 34.8333,125.5 36.1667,125.5 37.5,125.5C 37.5,126.5 37.5,127.5 37.5,128.5C 36.1667,128.5 34.8333,128.5 33.5,128.5C 33.5,127.5 33.5,126.5 33.5,125.5 Z"/></g>
<g><path style="opacity:1" fill="#b7ad9e" d="M 55.5,125.5 C 56.8333,125.5 58.1667,125.5 59.5,125.5C 59.5,126.5 59.5,127.5 59.5,128.5C 58.1667,128.5 56.8333,128.5 55.5,128.5C 55.5,127.5 55.5,126.5 55.5,125.5 Z"/></g>
<g><path style="opacity:1" fill="#b2ada2" d="M 187.5,141.5 C 190.659,141.917 192.659,143.75 193.5,147C 193.167,147.5 192.833,148 192.5,148.5C 191.5,147.167 190.5,145.833 189.5,144.5C 188.418,146.784 186.752,147.95 184.5,148C 185.914,146.007 186.914,143.84 187.5,141.5 Z"/></g>
<g><path style="opacity:1" fill="#bab6ae" d="M 140.5,141.5 C 142.638,141.703 144.305,142.703 145.5,144.5C 146.665,143.509 147.832,142.509 149,141.5C 149.5,141.667 150,141.833 150.5,142C 146.566,145.793 146.566,149.626 150.5,153.5C 150,153.833 149.5,154.167 149,154.5C 147.674,153.201 146.34,151.868 145,150.5C 144.044,151.579 143.211,152.745 142.5,154C 141.5,154.667 140.5,154.667 139.5,154C 141.087,152.155 142.421,150.155 143.5,148C 142.094,146.022 141.094,143.855 140.5,141.5 Z"/></g>
<g><path style="opacity:1" fill="#94abba" d="M 98.5,145.5 C 98.5,146.833 98.5,148.167 98.5,149.5C 96.439,148.249 96.1057,146.582 97.5,144.5C 98.1067,144.624 98.44,144.957 98.5,145.5 Z"/></g>
<g><path style="opacity:1" fill="#acb2b1" d="M 98.5,150.5 C 99.4584,150.953 100.292,151.619 101,152.5C 101.464,151.906 101.631,151.239 101.5,150.5C 103.081,148.858 103.747,146.858 103.5,144.5C 104.552,144.351 105.552,144.517 106.5,145C 105.839,148.137 104.505,150.97 102.5,153.5C 99.9364,154.564 98.6031,153.564 98.5,150.5 Z"/></g>
<g><path style="opacity:1" fill="#94abba" d="M 230.5,145.5 C 230.5,146.833 230.5,148.167 230.5,149.5C 228.439,148.249 228.106,146.582 229.5,144.5C 230.107,144.624 230.44,144.957 230.5,145.5 Z"/></g>
<g><path style="opacity:1" fill="#acb2b1" d="M 230.5,150.5 C 231.458,150.953 232.292,151.619 233,152.5C 233.464,151.906 233.631,151.239 233.5,150.5C 235.081,148.858 235.747,146.858 235.5,144.5C 236.552,144.351 237.552,144.517 238.5,145C 237.839,148.137 236.505,150.97 234.5,153.5C 231.936,154.564 230.603,153.564 230.5,150.5 Z"/></g>
<g><path style="opacity:1" fill="#b9bdb9" d="M 10.5,141.5 C 11.8589,142.007 12.8589,143.007 13.5,144.5C 14.1667,143.5 14.8333,142.5 15.5,141.5C 16.3539,142.948 17.3539,144.281 18.5,145.5C 15.8333,146.833 15.8333,148.167 18.5,149.5C 17.675,150.386 16.675,150.719 15.5,150.5C 15.0583,155.694 14.0583,155.694 12.5,150.5C 11.8333,151.833 11.1667,153.167 10.5,154.5C 9.75152,152.668 8.75152,151.001 7.5,149.5C 10.715,148.552 11.0484,147.219 8.5,145.5C 9.85318,144.476 10.5198,143.143 10.5,141.5 Z"/></g>
<g><path style="opacity:1" fill="#233062" d="M 12.5,146.5 C 14.337,146.639 14.6704,147.306 13.5,148.5C 12.7025,148.043 12.3691,147.376 12.5,146.5 Z"/></g>
<g><path style="opacity:1" fill="#b9bdb9" d="M 32.5,141.5 C 33.8589,142.007 34.8589,143.007 35.5,144.5C 36.1667,143.5 36.8333,142.5 37.5,141.5C 38.3539,142.948 39.3539,144.281 40.5,145.5C 37.8333,146.833 37.8333,148.167 40.5,149.5C 39.675,150.386 38.675,150.719 37.5,150.5C 37.0583,155.694 36.0583,155.694 34.5,150.5C 33.8333,151.833 33.1667,153.167 32.5,154.5C 31.7515,152.668 30.7515,151.001 29.5,149.5C 32.715,148.552 33.0484,147.219 30.5,145.5C 31.8532,144.476 32.5198,143.143 32.5,141.5 Z"/></g>
<g><path style="opacity:1" fill="#233062" d="M 34.5,146.5 C 36.337,146.639 36.6704,147.306 35.5,148.5C 34.7025,148.043 34.3691,147.376 34.5,146.5 Z"/></g>
<g><path style="opacity:1" fill="#b9bdb9" d="M 54.5,141.5 C 55.8589,142.007 56.8589,143.007 57.5,144.5C 58.1667,143.5 58.8333,142.5 59.5,141.5C 60.3539,142.948 61.3539,144.281 62.5,145.5C 59.8333,146.833 59.8333,148.167 62.5,149.5C 61.675,150.386 60.675,150.719 59.5,150.5C 59.0583,155.694 58.0583,155.694 56.5,150.5C 55.8333,151.833 55.1667,153.167 54.5,154.5C 53.7515,152.668 52.7515,151.001 51.5,149.5C 54.715,148.552 55.0484,147.219 52.5,145.5C 53.8532,144.476 54.5198,143.143 54.5,141.5 Z"/></g>
<g><path style="opacity:1" fill="#233062" d="M 56.5,146.5 C 58.337,146.639 58.6704,147.306 57.5,148.5C 56.7025,148.043 56.3691,147.376 56.5,146.5 Z"/></g>
<g><path style="opacity:1" fill="#b9bdb9" d="M 76.5,141.5 C 77.8589,142.007 78.8589,143.007 79.5,144.5C 80.1667,143.5 80.8333,142.5 81.5,141.5C 82.3539,142.948 83.3539,144.281 84.5,145.5C 81.8333,146.833 81.8333,148.167 84.5,149.5C 83.675,150.386 82.675,150.719 81.5,150.5C 81.0583,155.694 80.0583,155.694 78.5,150.5C 77.8333,151.833 77.1667,153.167 76.5,154.5C 75.7515,152.668 74.7515,151.001 73.5,149.5C 76.715,148.552 77.0484,147.219 74.5,145.5C 75.8532,144.476 76.5198,143.143 76.5,141.5 Z"/></g>
<g><path style="opacity:1" fill="#233062" d="M 78.5,146.5 C 80.337,146.639 80.6704,147.306 79.5,148.5C 78.7025,148.043 78.3691,147.376 78.5,146.5 Z"/></g>
<g><path style="opacity:1" fill="#b9bdb9" d="M 120.5,141.5 C 121.859,142.007 122.859,143.007 123.5,144.5C 124.167,143.5 124.833,142.5 125.5,141.5C 126.354,142.948 127.354,144.281 128.5,145.5C 125.833,146.833 125.833,148.167 128.5,149.5C 127.675,150.386 126.675,150.719 125.5,150.5C 125.058,155.694 124.058,155.694 122.5,150.5C 121.833,151.833 121.167,153.167 120.5,154.5C 119.752,152.668 118.752,151.001 117.5,149.5C 120.715,148.552 121.048,147.219 118.5,145.5C 119.853,144.476 120.52,143.143 120.5,141.5 Z"/></g>
<g><path style="opacity:1" fill="#233062" d="M 122.5,146.5 C 124.337,146.639 124.67,147.306 123.5,148.5C 122.702,148.043 122.369,147.376 122.5,146.5 Z"/></g>
<g><path style="opacity:1" fill="#b9bdb9" d="M 164.5,141.5 C 165.859,142.007 166.859,143.007 167.5,144.5C 168.167,143.5 168.833,142.5 169.5,141.5C 170.354,142.948 171.354,144.281 172.5,145.5C 169.833,146.833 169.833,148.167 172.5,149.5C 171.675,150.386 170.675,150.719 169.5,150.5C 169.058,155.694 168.058,155.694 166.5,150.5C 165.833,151.833 165.167,153.167 164.5,154.5C 163.752,152.668 162.752,151.001 161.5,149.5C 164.715,148.552 165.048,147.219 162.5,145.5C 163.853,144.476 164.52,143.143 164.5,141.5 Z"/></g>
<g><path style="opacity:1" fill="#233062" d="M 166.5,146.5 C 168.337,146.639 168.67,147.306 167.5,148.5C 166.702,148.043 166.369,147.376 166.5,146.5 Z"/></g>
<g><path style="opacity:1" fill="#b9bdb9" d="M 208.5,141.5 C 209.859,142.007 210.859,143.007 211.5,144.5C 212.167,143.5 212.833,142.5 213.5,141.5C 214.354,142.948 215.354,144.281 216.5,145.5C 213.833,146.833 213.833,148.167 216.5,149.5C 215.675,150.386 214.675,150.719 213.5,150.5C 213.058,155.694 212.058,155.694 210.5,150.5C 209.833,151.833 209.167,153.167 208.5,154.5C 207.752,152.668 206.752,151.001 205.5,149.5C 208.715,148.552 209.048,147.219 206.5,145.5C 207.853,144.476 208.52,143.143 208.5,141.5 Z"/></g>
<g><path style="opacity:1" fill="#233062" d="M 210.5,146.5 C 212.337,146.639 212.67,147.306 211.5,148.5C 210.702,148.043 210.369,147.376 210.5,146.5 Z"/></g>
<g><path style="opacity:1" fill="#b9bdb9" d="M 252.5,141.5 C 253.859,142.007 254.859,143.007 255.5,144.5C 256.167,143.5 256.833,142.5 257.5,141.5C 258.354,142.948 259.354,144.281 260.5,145.5C 257.833,146.833 257.833,148.167 260.5,149.5C 259.675,150.386 258.675,150.719 257.5,150.5C 257.058,155.694 256.058,155.694 254.5,150.5C 253.833,151.833 253.167,153.167 252.5,154.5C 251.752,152.668 250.752,151.001 249.5,149.5C 252.715,148.552 253.048,147.219 250.5,145.5C 251.853,144.476 252.52,143.143 252.5,141.5 Z"/></g>
<g><path style="opacity:1" fill="#233062" d="M 254.5,146.5 C 256.337,146.639 256.67,147.306 255.5,148.5C 254.702,148.043 254.369,147.376 254.5,146.5 Z"/></g>
<g><path style="opacity:1" fill="#b99770" d="M 98.5,145.5 C 99.6873,147.072 100.687,148.739 101.5,150.5C 101.631,151.239 101.464,151.906 101,152.5C 100.292,151.619 99.4584,150.953 98.5,150.5C 98.5,150.167 98.5,149.833 98.5,149.5C 98.5,148.167 98.5,146.833 98.5,145.5 Z"/></g>
<g><path style="opacity:1" fill="#b99770" d="M 230.5,145.5 C 231.687,147.072 232.687,148.739 233.5,150.5C 233.631,151.239 233.464,151.906 233,152.5C 232.292,151.619 231.458,150.953 230.5,150.5C 230.5,150.167 230.5,149.833 230.5,149.5C 230.5,148.167 230.5,146.833 230.5,145.5 Z"/></g>
<g><path style="opacity:1" fill="#b2ada2" d="M 187.5,167.5 C 190.659,167.917 192.659,169.75 193.5,173C 193.167,173.5 192.833,174 192.5,174.5C 191.5,173.167 190.5,171.833 189.5,170.5C 188.418,172.784 186.752,173.95 184.5,174C 185.914,172.007 186.914,169.84 187.5,167.5 Z"/></g>
<g><path style="opacity:1" fill="#bab6ae" d="M 140.5,167.5 C 142.638,167.703 144.305,168.703 145.5,170.5C 146.665,169.509 147.832,168.509 149,167.5C 149.5,167.667 150,167.833 150.5,168C 146.566,171.793 146.566,175.626 150.5,179.5C 150,179.833 149.5,180.167 149,180.5C 147.674,179.201 146.34,177.868 145,176.5C 144.044,177.579 143.211,178.745 142.5,180C 141.5,180.667 140.5,180.667 139.5,180C 141.087,178.155 142.421,176.155 143.5,174C 142.094,172.022 141.094,169.855 140.5,167.5 Z"/></g>
<g><path style="opacity:1" fill="#94abba" d="M 98.5,171.5 C 98.5,172.833 98.5,174.167 98.5,175.5C 96.439,174.249 96.1057,172.582 97.5,170.5C 98.1067,170.624 98.44,170.957 98.5,171.5 Z"/></g>
<g><path style="opacity:1" fill="#acb2b1" d="M 98.5,176.5 C 99.4584,176.953 100.292,177.619 101,178.5C 101.464,177.906 101.631,177.239 101.5,176.5C 103.081,174.858 103.747,172.858 103.5,170.5C 104.552,170.351 105.552,170.517 106.5,171C 105.839,174.137 104.505,176.97 102.5,179.5C 99.9364,180.564 98.6031,179.564 98.5,176.5 Z"/></g>
<g><path style="opacity:1" fill="#94abba" d="M 230.5,171.5 C 230.5,172.833 230.5,174.167 230.5,175.5C 228.439,174.249 228.106,172.582 229.5,170.5C 230.107,170.624 230.44,170.957 230.5,171.5 Z"/></g>
<g><path style="opacity:1" fill="#acb2b1" d="M 230.5,176.5 C 231.458,176.953 232.292,177.619 233,178.5C 233.464,177.906 233.631,177.239 233.5,176.5C 235.081,174.858 235.747,172.858 235.5,170.5C 236.552,170.351 237.552,170.517 238.5,171C 237.839,174.137 236.505,176.97 234.5,179.5C 231.936,180.564 230.603,179.564 230.5,176.5 Z"/></g>
<g><path style="opacity:1" fill="#b9bdb9" d="M 10.5,167.5 C 11.8589,168.007 12.8589,169.007 13.5,170.5C 14.1667,169.5 14.8333,168.5 15.5,167.5C 16.3539,168.948 17.3539,170.281 18.5,171.5C 15.8333,172.833 15.8333,174.167 18.5,175.5C 17.675,176.386 16.675,176.719 15.5,176.5C 15.0583,181.694 14.0583,181.694 12.5,176.5C 11.8333,177.833 11.1667,179.167 10.5,180.5C 9.75152,178.668 8.75152,177.001 7.5,175.5C 10.715,174.552 11.0484,173.219 8.5,171.5C 9.85318,170.476 10.5198,169.143 10.5,167.5 Z"/></g>
<g><path style="opacity:1" fill="#233062" d="M 12.5,172.5 C 14.337,172.639 14.6704,173.306 13.5,174.5C 12.7025,174.043 12.3691,173.376 12.5,172.5 Z"/></g>
<g><path style="opacity:1" fill="#b9bdb9" d="M 76.5,167.5 C 77.8589,168.007 78.8589,169.007 79.5,170.5C 80.1667,169.5 80.8333,168.5 81.5,167.5C 82.3539,168.948 83.3539,170.281 84.5,171.5C 81.8333,172.833 81.8333,174.167 84.5,175.5C 83.675,176.386 82.675,176.719 81.5,176.5C 81.0583,181.694 80.0583,181.694 78.5,176.5C 77.8333,177.833 77.1667,179.167 76.5,180.5C 75.7515,178.668 74.7515,177.001 73.5,175.5C 76.715,174.552 77.0484,173.219 74.5,171.5C 75.8532,170.476 76.5198,169.143 76.5,167.5 Z"/></g>
<g><path style="opacity:1" fill="#233062" d="M 78.5,172.5 C 80.337,172.639 80.6704,173.306 79.5,174.5C 78.7025,174.043 78.3691,173.376 78.5,172.5 Z"/></g>
<g><path style="opacity:1" fill="#b9bdb9" d="M 120.5,167.5 C 121.859,168.007 122.859,169.007 123.5,170.5C 124.167,169.5 124.833,168.5 125.5,167.5C 126.354,168.948 127.354,170.281 128.5,171.5C 125.833,172.833 125.833,174.167 128.5,175.5C 127.675,176.386 126.675,176.719 125.5,176.5C 125.058,181.694 124.058,181.694 122.5,176.5C 121.833,177.833 121.167,179.167 120.5,180.5C 119.752,178.668 118.752,177.001 117.5,175.5C 120.715,174.552 121.048,173.219 118.5,171.5C 119.853,170.476 120.52,169.143 120.5,167.5 Z"/></g>
<g><path style="opacity:1" fill="#233062" d="M 122.5,172.5 C 124.337,172.639 124.67,173.306 123.5,174.5C 122.702,174.043 122.369,173.376 122.5,172.5 Z"/></g>
<g><path style="opacity:1" fill="#b9bdb9" d="M 164.5,167.5 C 165.859,168.007 166.859,169.007 167.5,170.5C 168.167,169.5 168.833,168.5 169.5,167.5C 170.354,168.948 171.354,170.281 172.5,171.5C 169.833,172.833 169.833,174.167 172.5,175.5C 171.675,176.386 170.675,176.719 169.5,176.5C 169.058,181.694 168.058,181.694 166.5,176.5C 165.833,177.833 165.167,179.167 164.5,180.5C 163.752,178.668 162.752,177.001 161.5,175.5C 164.715,174.552 165.048,173.219 162.5,171.5C 163.853,170.476 164.52,169.143 164.5,167.5 Z"/></g>
<g><path style="opacity:1" fill="#233062" d="M 166.5,172.5 C 168.337,172.639 168.67,173.306 167.5,174.5C 166.702,174.043 166.369,173.376 166.5,172.5 Z"/></g>
<g><path style="opacity:1" fill="#b9bdb9" d="M 208.5,167.5 C 209.859,168.007 210.859,169.007 211.5,170.5C 212.167,169.5 212.833,168.5 213.5,167.5C 214.354,168.948 215.354,170.281 216.5,171.5C 213.833,172.833 213.833,174.167 216.5,175.5C 215.675,176.386 214.675,176.719 213.5,176.5C 213.058,181.694 212.058,181.694 210.5,176.5C 209.833,177.833 209.167,179.167 208.5,180.5C 207.752,178.668 206.752,177.001 205.5,175.5C 208.715,174.552 209.048,173.219 206.5,171.5C 207.853,170.476 208.52,169.143 208.5,167.5 Z"/></g>
<g><path style="opacity:1" fill="#233062" d="M 210.5,172.5 C 212.337,172.639 212.67,173.306 211.5,174.5C 210.702,174.043 210.369,173.376 210.5,172.5 Z"/></g>
<g><path style="opacity:1" fill="#b9bdb9" d="M 252.5,167.5 C 253.859,168.007 254.859,169.007 255.5,170.5C 256.167,169.5 256.833,168.5 257.5,167.5C 258.354,168.948 259.354,170.281 260.5,171.5C 257.833,172.833 257.833,174.167 260.5,175.5C 259.675,176.386 258.675,176.719 257.5,176.5C 257.058,181.694 256.058,181.694 254.5,176.5C 253.833,177.833 253.167,179.167 252.5,180.5C 251.752,178.668 250.752,177.001 249.5,175.5C 252.715,174.552 253.048,173.219 250.5,171.5C 251.853,170.476 252.52,169.143 252.5,167.5 Z"/></g>
<g><path style="opacity:1" fill="#233062" d="M 254.5,172.5 C 256.337,172.639 256.67,173.306 255.5,174.5C 254.702,174.043 254.369,173.376 254.5,172.5 Z"/></g>
<g><path style="opacity:1" fill="#b99770" d="M 98.5,171.5 C 99.6873,173.072 100.687,174.739 101.5,176.5C 101.631,177.239 101.464,177.906 101,178.5C 100.292,177.619 99.4584,176.953 98.5,176.5C 98.5,176.167 98.5,175.833 98.5,175.5C 98.5,174.167 98.5,172.833 98.5,171.5 Z"/></g>
<g><path style="opacity:1" fill="#b99770" d="M 230.5,171.5 C 231.687,173.072 232.687,174.739 233.5,176.5C 233.631,177.239 233.464,177.906 233,178.5C 232.292,177.619 231.458,176.953 230.5,176.5C 230.5,176.167 230.5,175.833 230.5,175.5C 230.5,174.167 230.5,172.833 230.5,171.5 Z"/></g>
<g><path style="opacity:1" fill="#b7ad9e" d="M 33.5,177.5 C 34.8333,177.5 36.1667,177.5 37.5,177.5C 37.5,178.5 37.5,179.5 37.5,180.5C 36.1667,180.5 34.8333,180.5 33.5,180.5C 33.5,179.5 33.5,178.5 33.5,177.5 Z"/></g>
<g><path style="opacity:1" fill="#b7ad9e" d="M 55.5,177.5 C 56.8333,177.5 58.1667,177.5 59.5,177.5C 59.5,178.5 59.5,179.5 59.5,180.5C 58.1667,180.5 56.8333,180.5 55.5,180.5C 55.5,179.5 55.5,178.5 55.5,177.5 Z"/></g>
<g><path style="opacity:1" fill="#b2ada2" d="M 187.5,193.5 C 190.659,193.917 192.659,195.75 193.5,199C 193.167,199.5 192.833,200 192.5,200.5C 191.5,199.167 190.5,197.833 189.5,196.5C 188.418,198.784 186.752,199.95 184.5,200C 185.914,198.007 186.914,195.84 187.5,193.5 Z"/></g>
<g><path style="opacity:1" fill="#bab6ae" d="M 140.5,193.5 C 142.638,193.703 144.305,194.703 145.5,196.5C 146.665,195.509 147.832,194.509 149,193.5C 149.5,193.667 150,193.833 150.5,194C 146.566,197.793 146.566,201.626 150.5,205.5C 150,205.833 149.5,206.167 149,206.5C 147.674,205.201 146.34,203.868 145,202.5C 144.044,203.579 143.211,204.745 142.5,206C 141.5,206.667 140.5,206.667 139.5,206C 141.087,204.155 142.421,202.155 143.5,200C 142.094,198.022 141.094,195.855 140.5,193.5 Z"/></g>
<g><path style="opacity:1" fill="#94abba" d="M 98.5,197.5 C 98.5,198.833 98.5,200.167 98.5,201.5C 96.439,200.249 96.1057,198.582 97.5,196.5C 98.1067,196.624 98.44,196.957 98.5,197.5 Z"/></g>
<g><path style="opacity:1" fill="#acb2b1" d="M 98.5,202.5 C 99.4584,202.953 100.292,203.619 101,204.5C 101.464,203.906 101.631,203.239 101.5,202.5C 103.081,200.858 103.747,198.858 103.5,196.5C 104.552,196.351 105.552,196.517 106.5,197C 105.839,200.137 104.505,202.97 102.5,205.5C 99.9364,206.564 98.6031,205.564 98.5,202.5 Z"/></g>
<g><path style="opacity:1" fill="#94abba" d="M 230.5,197.5 C 230.5,198.833 230.5,200.167 230.5,201.5C 228.439,200.249 228.106,198.582 229.5,196.5C 230.107,196.624 230.44,196.957 230.5,197.5 Z"/></g>
<g><path style="opacity:1" fill="#acb2b1" d="M 230.5,202.5 C 231.458,202.953 232.292,203.619 233,204.5C 233.464,203.906 233.631,203.239 233.5,202.5C 235.081,200.858 235.747,198.858 235.5,196.5C 236.552,196.351 237.552,196.517 238.5,197C 237.839,200.137 236.505,202.97 234.5,205.5C 231.936,206.564 230.603,205.564 230.5,202.5 Z"/></g>
<g><path style="opacity:1" fill="#b9bdb9" d="M 10.5,193.5 C 11.8589,194.007 12.8589,195.007 13.5,196.5C 14.1667,195.5 14.8333,194.5 15.5,193.5C 16.3539,194.948 17.3539,196.281 18.5,197.5C 15.8333,198.833 15.8333,200.167 18.5,201.5C 17.675,202.386 16.675,202.719 15.5,202.5C 15.0583,207.694 14.0583,207.694 12.5,202.5C 11.8333,203.833 11.1667,205.167 10.5,206.5C 9.75152,204.668 8.75152,203.001 7.5,201.5C 10.715,200.552 11.0484,199.219 8.5,197.5C 9.85318,196.476 10.5198,195.143 10.5,193.5 Z"/></g>
<g><path style="opacity:1" fill="#233062" d="M 12.5,198.5 C 14.337,198.639 14.6704,199.306 13.5,200.5C 12.7025,200.043 12.3691,199.376 12.5,198.5 Z"/></g>
<g><path style="opacity:1" fill="#b9bdb9" d="M 32.5,193.5 C 33.8589,194.007 34.8589,195.007 35.5,196.5C 36.1667,195.5 36.8333,194.5 37.5,193.5C 38.3539,194.948 39.3539,196.281 40.5,197.5C 37.8333,198.833 37.8333,200.167 40.5,201.5C 39.675,202.386 38.675,202.719 37.5,202.5C 37.0583,207.694 36.0583,207.694 34.5,202.5C 33.8333,203.833 33.1667,205.167 32.5,206.5C 31.7515,204.668 30.7515,203.001 29.5,201.5C 32.715,200.552 33.0484,199.219 30.5,197.5C 31.8532,196.476 32.5198,195.143 32.5,193.5 Z"/></g>
<g><path style="opacity:1" fill="#233062" d="M 34.5,198.5 C 36.337,198.639 36.6704,199.306 35.5,200.5C 34.7025,200.043 34.3691,199.376 34.5,198.5 Z"/></g>
<g><path style="opacity:1" fill="#b9bdb9" d="M 76.5,193.5 C 77.8589,194.007 78.8589,195.007 79.5,196.5C 80.1667,195.5 80.8333,194.5 81.5,193.5C 82.3539,194.948 83.3539,196.281 84.5,197.5C 81.8333,198.833 81.8333,200.167 84.5,201.5C 83.675,202.386 82.675,202.719 81.5,202.5C 81.0583,207.694 80.0583,207.694 78.5,202.5C 77.8333,203.833 77.1667,205.167 76.5,206.5C 75.7515,204.668 74.7515,203.001 73.5,201.5C 76.715,200.552 77.0484,199.219 74.5,197.5C 75.8532,196.476 76.5198,195.143 76.5,193.5 Z"/></g>
<g><path style="opacity:1" fill="#233062" d="M 78.5,198.5 C 80.337,198.639 80.6704,199.306 79.5,200.5C 78.7025,200.043 78.3691,199.376 78.5,198.5 Z"/></g>
<g><path style="opacity:1" fill="#b9bdb9" d="M 120.5,193.5 C 121.859,194.007 122.859,195.007 123.5,196.5C 124.167,195.5 124.833,194.5 125.5,193.5C 126.354,194.948 127.354,196.281 128.5,197.5C 125.833,198.833 125.833,200.167 128.5,201.5C 127.675,202.386 126.675,202.719 125.5,202.5C 125.058,207.694 124.058,207.694 122.5,202.5C 121.833,203.833 121.167,205.167 120.5,206.5C 119.752,204.668 118.752,203.001 117.5,201.5C 120.715,200.552 121.048,199.219 118.5,197.5C 119.853,196.476 120.52,195.143 120.5,193.5 Z"/></g>
<g><path style="opacity:1" fill="#233062" d="M 122.5,198.5 C 124.337,198.639 124.67,199.306 123.5,200.5C 122.702,200.043 122.369,199.376 122.5,198.5 Z"/></g>
<g><path style="opacity:1" fill="#b9bdb9" d="M 164.5,193.5 C 165.859,194.007 166.859,195.007 167.5,196.5C 168.167,195.5 168.833,194.5 169.5,193.5C 170.354,194.948 171.354,196.281 172.5,197.5C 169.833,198.833 169.833,200.167 172.5,201.5C 171.675,202.386 170.675,202.719 169.5,202.5C 169.058,207.694 168.058,207.694 166.5,202.5C 165.833,203.833 165.167,205.167 164.5,206.5C 163.752,204.668 162.752,203.001 161.5,201.5C 164.715,200.552 165.048,199.219 162.5,197.5C 163.853,196.476 164.52,195.143 164.5,193.5 Z"/></g>
<g><path style="opacity:1" fill="#233062" d="M 166.5,198.5 C 168.337,198.639 168.67,199.306 167.5,200.5C 166.702,200.043 166.369,199.376 166.5,198.5 Z"/></g>
<g><path style="opacity:1" fill="#b9bdb9" d="M 208.5,193.5 C 209.859,194.007 210.859,195.007 211.5,196.5C 212.167,195.5 212.833,194.5 213.5,193.5C 214.354,194.948 215.354,196.281 216.5,197.5C 213.833,198.833 213.833,200.167 216.5,201.5C 215.675,202.386 214.675,202.719 213.5,202.5C 213.058,207.694 212.058,207.694 210.5,202.5C 209.833,203.833 209.167,205.167 208.5,206.5C 207.752,204.668 206.752,203.001 205.5,201.5C 208.715,200.552 209.048,199.219 206.5,197.5C 207.853,196.476 208.52,195.143 208.5,193.5 Z"/></g>
<g><path style="opacity:1" fill="#233062" d="M 210.5,198.5 C 212.337,198.639 212.67,199.306 211.5,200.5C 210.702,200.043 210.369,199.376 210.5,198.5 Z"/></g>
<g><path style="opacity:1" fill="#b9bdb9" d="M 252.5,193.5 C 253.859,194.007 254.859,195.007 255.5,196.5C 256.167,195.5 256.833,194.5 257.5,193.5C 258.354,194.948 259.354,196.281 260.5,197.5C 257.833,198.833 257.833,200.167 260.5,201.5C 259.675,202.386 258.675,202.719 257.5,202.5C 257.058,207.694 256.058,207.694 254.5,202.5C 253.833,203.833 253.167,205.167 252.5,206.5C 251.752,204.668 250.752,203.001 249.5,201.5C 252.715,200.552 253.048,199.219 250.5,197.5C 251.853,196.476 252.52,195.143 252.5,193.5 Z"/></g>
<g><path style="opacity:1" fill="#233062" d="M 254.5,198.5 C 256.337,198.639 256.67,199.306 255.5,200.5C 254.702,200.043 254.369,199.376 254.5,198.5 Z"/></g>
<g><path style="opacity:1" fill="#b99770" d="M 98.5,197.5 C 99.6873,199.072 100.687,200.739 101.5,202.5C 101.631,203.239 101.464,203.906 101,204.5C 100.292,203.619 99.4584,202.953 98.5,202.5C 98.5,202.167 98.5,201.833 98.5,201.5C 98.5,200.167 98.5,198.833 98.5,197.5 Z"/></g>
<g><path style="opacity:1" fill="#b99770" d="M 230.5,197.5 C 231.687,199.072 232.687,200.739 233.5,202.5C 233.631,203.239 233.464,203.906 233,204.5C 232.292,203.619 231.458,202.953 230.5,202.5C 230.5,202.167 230.5,201.833 230.5,201.5C 230.5,200.167 230.5,198.833 230.5,197.5 Z"/></g>
<g><path style="opacity:1" fill="#b7ad9e" d="M 55.5,203.5 C 56.8333,203.5 58.1667,203.5 59.5,203.5C 59.5,204.5 59.5,205.5 59.5,206.5C 58.1667,206.5 56.8333,206.5 55.5,206.5C 55.5,205.5 55.5,204.5 55.5,203.5 Z"/></g>
<g><path style="opacity:1" fill="#b2ada2" d="M 187.5,219.5 C 190.659,219.917 192.659,221.75 193.5,225C 193.167,225.5 192.833,226 192.5,226.5C 191.5,225.167 190.5,223.833 189.5,222.5C 188.418,224.784 186.752,225.95 184.5,226C 185.914,224.007 186.914,221.84 187.5,219.5 Z"/></g>
<g><path style="opacity:1" fill="#94abba" d="M 230.5,223.5 C 230.5,224.833 230.5,226.167 230.5,227.5C 228.439,226.249 228.106,224.582 229.5,222.5C 230.107,222.624 230.44,222.957 230.5,223.5 Z"/></g>
<g><path style="opacity:1" fill="#acb2b1" d="M 230.5,228.5 C 231.458,228.953 232.292,229.619 233,230.5C 233.464,229.906 233.631,229.239 233.5,228.5C 235.081,226.858 235.747,224.858 235.5,222.5C 236.552,222.351 237.552,222.517 238.5,223C 237.839,226.137 236.505,228.97 234.5,231.5C 231.936,232.564 230.603,231.564 230.5,228.5 Z"/></g>
<g><path style="opacity:1" fill="#b9bdb9" d="M 10.5,219.5 C 11.8589,220.007 12.8589,221.007 13.5,222.5C 14.1667,221.5 14.8333,220.5 15.5,219.5C 16.3539,220.948 17.3539,222.281 18.5,223.5C 15.8333,224.833 15.8333,226.167 18.5,227.5C 17.675,228.386 16.675,228.719 15.5,228.5C 15.0583,233.694 14.0583,233.694 12.5,228.5C 11.8333,229.833 11.1667,231.167 10.5,232.5C 9.75152,230.668 8.75152,229.001 7.5,227.5C 10.715,226.552 11.0484,225.219 8.5,223.5C 9.85318,222.476 10.5198,221.143 10.5,219.5 Z"/></g>
<g><path style="opacity:1" fill="#233062" d="M 12.5,224.5 C 14.337,224.639 14.6704,225.306 13.5,226.5C 12.7025,226.043 12.3691,225.376 12.5,224.5 Z"/></g>
<g><path style="opacity:1" fill="#b9bdb9" d="M 208.5,219.5 C 209.859,220.007 210.859,221.007 211.5,222.5C 212.167,221.5 212.833,220.5 213.5,219.5C 214.354,220.948 215.354,222.281 216.5,223.5C 213.833,224.833 213.833,226.167 216.5,227.5C 215.675,228.386 214.675,228.719 213.5,228.5C 213.058,233.694 212.058,233.694 210.5,228.5C 209.833,229.833 209.167,231.167 208.5,232.5C 207.752,230.668 206.752,229.001 205.5,227.5C 208.715,226.552 209.048,225.219 206.5,223.5C 207.853,222.476 208.52,221.143 208.5,219.5 Z"/></g>
<g><path style="opacity:1" fill="#233062" d="M 210.5,224.5 C 212.337,224.639 212.67,225.306 211.5,226.5C 210.702,226.043 210.369,225.376 210.5,224.5 Z"/></g>
<g><path style="opacity:1" fill="#b9bdb9" d="M 252.5,219.5 C 253.859,220.007 254.859,221.007 255.5,222.5C 256.167,221.5 256.833,220.5 257.5,219.5C 258.354,220.948 259.354,222.281 260.5,223.5C 257.833,224.833 257.833,226.167 260.5,227.5C 259.675,228.386 258.675,228.719 257.5,228.5C 257.058,233.694 256.058,233.694 254.5,228.5C 253.833,229.833 253.167,231.167 252.5,232.5C 251.752,230.668 250.752,229.001 249.5,227.5C 252.715,226.552 253.048,225.219 250.5,223.5C 251.853,222.476 252.52,221.143 252.5,219.5 Z"/></g>
<g><path style="opacity:1" fill="#233062" d="M 254.5,224.5 C 256.337,224.639 256.67,225.306 255.5,226.5C 254.702,226.043 254.369,225.376 254.5,224.5 Z"/></g>
<g><path style="opacity:1" fill="#b4b0a7" d="M 97.5,220.5 C 107.532,223.861 107.865,227.861 98.5,232.5C 97.479,231.998 97.3123,231.332 98,230.5C 99.9717,229.695 101.472,228.361 102.5,226.5C 100.093,225.095 98.4262,223.095 97.5,220.5 Z"/></g>
<g><path style="opacity:1" fill="#b4b0a7" d="M 119.5,220.5 C 129.532,223.861 129.865,227.861 120.5,232.5C 119.479,231.998 119.312,231.332 120,230.5C 121.972,229.695 123.472,228.361 124.5,226.5C 122.093,225.095 120.426,223.095 119.5,220.5 Z"/></g>
<g><path style="opacity:1" fill="#b4b0a7" d="M 141.5,220.5 C 151.532,223.861 151.865,227.861 142.5,232.5C 141.479,231.998 141.312,231.332 142,230.5C 143.972,229.695 145.472,228.361 146.5,226.5C 144.093,225.095 142.426,223.095 141.5,220.5 Z"/></g>
<g><path style="opacity:1" fill="#b4b0a7" d="M 163.5,220.5 C 173.532,223.861 173.865,227.861 164.5,232.5C 163.479,231.998 163.312,231.332 164,230.5C 165.972,229.695 167.472,228.361 168.5,226.5C 166.093,225.095 164.426,223.095 163.5,220.5 Z"/></g>
<g><path style="opacity:1" fill="#b99770" d="M 230.5,223.5 C 231.687,225.072 232.687,226.739 233.5,228.5C 233.631,229.239 233.464,229.906 233,230.5C 232.292,229.619 231.458,228.953 230.5,228.5C 230.5,228.167 230.5,227.833 230.5,227.5C 230.5,226.167 230.5,224.833 230.5,223.5 Z"/></g>
<g><path style="opacity:1" fill="#b7ad9e" d="M 33.5,229.5 C 34.8333,229.5 36.1667,229.5 37.5,229.5C 37.5,230.5 37.5,231.5 37.5,232.5C 36.1667,232.5 34.8333,232.5 33.5,232.5C 33.5,231.5 33.5,230.5 33.5,229.5 Z"/></g>
<g><path style="opacity:1" fill="#b7ad9e" d="M 55.5,229.5 C 56.8333,229.5 58.1667,229.5 59.5,229.5C 59.5,230.5 59.5,231.5 59.5,232.5C 58.1667,232.5 56.8333,232.5 55.5,232.5C 55.5,231.5 55.5,230.5 55.5,229.5 Z"/></g>
<g><path style="opacity:1" fill="#b7ad9e" d="M 77.5,229.5 C 78.8333,229.5 80.1667,229.5 81.5,229.5C 81.5,230.5 81.5,231.5 81.5,232.5C 80.1667,232.5 78.8333,232.5 77.5,232.5C 77.5,231.5 77.5,230.5 77.5,229.5 Z"/></g>
<g><path style="opacity:1" fill="#bab6ae" d="M 140.5,245.5 C 142.638,245.703 144.305,246.703 145.5,248.5C 146.665,247.509 147.832,246.509 149,245.5C 149.5,245.667 150,245.833 150.5,246C 146.566,249.793 146.566,253.626 150.5,257.5C 150,257.833 149.5,258.167 149,258.5C 147.674,257.201 146.34,255.868 145,254.5C 144.044,255.579 143.211,256.745 142.5,258C 141.5,258.667 140.5,258.667 139.5,258C 141.087,256.155 142.421,254.155 143.5,252C 142.094,250.022 141.094,247.855 140.5,245.5 Z"/></g>
<g><path style="opacity:1" fill="#94abba" d="M 230.5,249.5 C 230.5,250.833 230.5,252.167 230.5,253.5C 228.439,252.249 228.106,250.582 229.5,248.5C 230.107,248.624 230.44,248.957 230.5,249.5 Z"/></g>
<g><path style="opacity:1" fill="#acb2b1" d="M 230.5,254.5 C 231.458,254.953 232.292,255.619 233,256.5C 233.464,255.906 233.631,255.239 233.5,254.5C 235.081,252.858 235.747,250.858 235.5,248.5C 236.552,248.351 237.552,248.517 238.5,249C 237.839,252.137 236.505,254.97 234.5,257.5C 231.936,258.564 230.603,257.564 230.5,254.5 Z"/></g>
<g><path style="opacity:1" fill="#b9bdb9" d="M 10.5,245.5 C 11.8589,246.007 12.8589,247.007 13.5,248.5C 14.1667,247.5 14.8333,246.5 15.5,245.5C 16.3539,246.948 17.3539,248.281 18.5,249.5C 15.8333,250.833 15.8333,252.167 18.5,253.5C 17.675,254.386 16.675,254.719 15.5,254.5C 15.0583,259.694 14.0583,259.694 12.5,254.5C 11.8333,255.833 11.1667,257.167 10.5,258.5C 9.75152,256.668 8.75152,255.001 7.5,253.5C 10.715,252.552 11.0484,251.219 8.5,249.5C 9.85318,248.476 10.5198,247.143 10.5,245.5 Z"/></g>
<g><path style="opacity:1" fill="#233062" d="M 12.5,250.5 C 14.337,250.639 14.6704,251.306 13.5,252.5C 12.7025,252.043 12.3691,251.376 12.5,250.5 Z"/></g>
<g><path style="opacity:1" fill="#b9bdb9" d="M 32.5,245.5 C 33.8589,246.007 34.8589,247.007 35.5,248.5C 36.1667,247.5 36.8333,246.5 37.5,245.5C 38.3539,246.948 39.3539,248.281 40.5,249.5C 37.8333,250.833 37.8333,252.167 40.5,253.5C 39.675,254.386 38.675,254.719 37.5,254.5C 37.0583,259.694 36.0583,259.694 34.5,254.5C 33.8333,255.833 33.1667,257.167 32.5,258.5C 31.7515,256.668 30.7515,255.001 29.5,253.5C 32.715,252.552 33.0484,251.219 30.5,249.5C 31.8532,248.476 32.5198,247.143 32.5,245.5 Z"/></g>
<g><path style="opacity:1" fill="#233062" d="M 34.5,250.5 C 36.337,250.639 36.6704,251.306 35.5,252.5C 34.7025,252.043 34.3691,251.376 34.5,250.5 Z"/></g>
<g><path style="opacity:1" fill="#b9bdb9" d="M 54.5,245.5 C 55.8589,246.007 56.8589,247.007 57.5,248.5C 58.1667,247.5 58.8333,246.5 59.5,245.5C 60.3539,246.948 61.3539,248.281 62.5,249.5C 59.8333,250.833 59.8333,252.167 62.5,253.5C 61.675,254.386 60.675,254.719 59.5,254.5C 59.0583,259.694 58.0583,259.694 56.5,254.5C 55.8333,255.833 55.1667,257.167 54.5,258.5C 53.7515,256.668 52.7515,255.001 51.5,253.5C 54.715,252.552 55.0484,251.219 52.5,249.5C 53.8532,248.476 54.5198,247.143 54.5,245.5 Z"/></g>
<g><path style="opacity:1" fill="#233062" d="M 56.5,250.5 C 58.337,250.639 58.6704,251.306 57.5,252.5C 56.7025,252.043 56.3691,251.376 56.5,250.5 Z"/></g>
<g><path style="opacity:1" fill="#b9bdb9" d="M 76.5,245.5 C 77.8589,246.007 78.8589,247.007 79.5,248.5C 80.1667,247.5 80.8333,246.5 81.5,245.5C 82.3539,246.948 83.3539,248.281 84.5,249.5C 81.8333,250.833 81.8333,252.167 84.5,253.5C 83.675,254.386 82.675,254.719 81.5,254.5C 81.0583,259.694 80.0583,259.694 78.5,254.5C 77.8333,255.833 77.1667,257.167 76.5,258.5C 75.7515,256.668 74.7515,255.001 73.5,253.5C 76.715,252.552 77.0484,251.219 74.5,249.5C 75.8532,248.476 76.5198,247.143 76.5,245.5 Z"/></g>
<g><path style="opacity:1" fill="#233062" d="M 78.5,250.5 C 80.337,250.639 80.6704,251.306 79.5,252.5C 78.7025,252.043 78.3691,251.376 78.5,250.5 Z"/></g>
<g><path style="opacity:1" fill="#b9bdb9" d="M 98.5,245.5 C 99.8589,246.007 100.859,247.007 101.5,248.5C 102.167,247.5 102.833,246.5 103.5,245.5C 104.354,246.948 105.354,248.281 106.5,249.5C 103.833,250.833 103.833,252.167 106.5,253.5C 105.675,254.386 104.675,254.719 103.5,254.5C 103.058,259.694 102.058,259.694 100.5,254.5C 99.8333,255.833 99.1667,257.167 98.5,258.5C 97.7515,256.668 96.7515,255.001 95.5,253.5C 98.715,252.552 99.0484,251.219 96.5,249.5C 97.8532,248.476 98.5198,247.143 98.5,245.5 Z"/></g>
<g><path style="opacity:1" fill="#233062" d="M 100.5,250.5 C 102.337,250.639 102.67,251.306 101.5,252.5C 100.702,252.043 100.369,251.376 100.5,250.5 Z"/></g>
<g><path style="opacity:1" fill="#b9bdb9" d="M 120.5,245.5 C 121.859,246.007 122.859,247.007 123.5,248.5C 124.167,247.5 124.833,246.5 125.5,245.5C 126.354,246.948 127.354,248.281 128.5,249.5C 125.833,250.833 125.833,252.167 128.5,253.5C 127.675,254.386 126.675,254.719 125.5,254.5C 125.058,259.694 124.058,259.694 122.5,254.5C 121.833,255.833 121.167,257.167 120.5,258.5C 119.752,256.668 118.752,255.001 117.5,253.5C 120.715,252.552 121.048,251.219 118.5,249.5C 119.853,248.476 120.52,247.143 120.5,245.5 Z"/></g>
<g><path style="opacity:1" fill="#233062" d="M 122.5,250.5 C 124.337,250.639 124.67,251.306 123.5,252.5C 122.702,252.043 122.369,251.376 122.5,250.5 Z"/></g>
<g><path style="opacity:1" fill="#b9bdb9" d="M 164.5,245.5 C 165.859,246.007 166.859,247.007 167.5,248.5C 168.167,247.5 168.833,246.5 169.5,245.5C 170.354,246.948 171.354,248.281 172.5,249.5C 169.833,250.833 169.833,252.167 172.5,253.5C 171.675,254.386 170.675,254.719 169.5,254.5C 169.058,259.694 168.058,259.694 166.5,254.5C 165.833,255.833 165.167,257.167 164.5,258.5C 163.752,256.668 162.752,255.001 161.5,253.5C 164.715,252.552 165.048,251.219 162.5,249.5C 163.853,248.476 164.52,247.143 164.5,245.5 Z"/></g>
<g><path style="opacity:1" fill="#233062" d="M 166.5,250.5 C 168.337,250.639 168.67,251.306 167.5,252.5C 166.702,252.043 166.369,251.376 166.5,250.5 Z"/></g>
<g><path style="opacity:1" fill="#b9bdb9" d="M 186.5,245.5 C 187.859,246.007 188.859,247.007 189.5,248.5C 190.167,247.5 190.833,246.5 191.5,245.5C 192.354,246.948 193.354,248.281 194.5,249.5C 191.833,250.833 191.833,252.167 194.5,253.5C 193.675,254.386 192.675,254.719 191.5,254.5C 191.058,259.694 190.058,259.694 188.5,254.5C 187.833,255.833 187.167,257.167 186.5,258.5C 185.752,256.668 184.752,255.001 183.5,253.5C 186.715,252.552 187.048,251.219 184.5,249.5C 185.853,248.476 186.52,247.143 186.5,245.5 Z"/></g>
<g><path style="opacity:1" fill="#233062" d="M 188.5,250.5 C 190.337,250.639 190.67,251.306 189.5,252.5C 188.702,252.043 188.369,251.376 188.5,250.5 Z"/></g>
<g><path style="opacity:1" fill="#b9bdb9" d="M 208.5,245.5 C 209.859,246.007 210.859,247.007 211.5,248.5C 212.167,247.5 212.833,246.5 213.5,245.5C 214.354,246.948 215.354,248.281 216.5,249.5C 213.833,250.833 213.833,252.167 216.5,253.5C 215.675,254.386 214.675,254.719 213.5,254.5C 213.058,259.694 212.058,259.694 210.5,254.5C 209.833,255.833 209.167,257.167 208.5,258.5C 207.752,256.668 206.752,255.001 205.5,253.5C 208.715,252.552 209.048,251.219 206.5,249.5C 207.853,248.476 208.52,247.143 208.5,245.5 Z"/></g>
<g><path style="opacity:1" fill="#233062" d="M 210.5,250.5 C 212.337,250.639 212.67,251.306 211.5,252.5C 210.702,252.043 210.369,251.376 210.5,250.5 Z"/></g>
<g><path style="opacity:1" fill="#b9bdb9" d="M 252.5,245.5 C 253.859,246.007 254.859,247.007 255.5,248.5C 256.167,247.5 256.833,246.5 257.5,245.5C 258.354,246.948 259.354,248.281 260.5,249.5C 257.833,250.833 257.833,252.167 260.5,253.5C 259.675,254.386 258.675,254.719 257.5,254.5C 257.058,259.694 256.058,259.694 254.5,254.5C 253.833,255.833 253.167,257.167 252.5,258.5C 251.752,256.668 250.752,255.001 249.5,253.5C 252.715,252.552 253.048,251.219 250.5,249.5C 251.853,248.476 252.52,247.143 252.5,245.5 Z"/></g>
<g><path style="opacity:1" fill="#233062" d="M 254.5,250.5 C 256.337,250.639 256.67,251.306 255.5,252.5C 254.702,252.043 254.369,251.376 254.5,250.5 Z"/></g>
<g><path style="opacity:1" fill="#b99770" d="M 230.5,249.5 C 231.687,251.072 232.687,252.739 233.5,254.5C 233.631,255.239 233.464,255.906 233,256.5C 232.292,255.619 231.458,254.953 230.5,254.5C 230.5,254.167 230.5,253.833 230.5,253.5C 230.5,252.167 230.5,250.833 230.5,249.5 Z"/></g>
<g><path style="opacity:1" fill="#bab6ae" d="M 30.5,271.5 C 32.6382,271.703 34.3049,272.703 35.5,274.5C 36.6652,273.509 37.8319,272.509 39,271.5C 39.5,271.667 40,271.833 40.5,272C 36.5664,275.793 36.5664,279.626 40.5,283.5C 40,283.833 39.5,284.167 39,284.5C 37.6736,283.201 36.3402,281.868 35,280.5C 34.044,281.579 33.2106,282.745 32.5,284C 31.5,284.667 30.5,284.667 29.5,284C 31.0874,282.155 32.4208,280.155 33.5,278C 32.0944,276.022 31.0944,273.855 30.5,271.5 Z"/></g>
<g><path style="opacity:1" fill="#bab6ae" d="M 52.5,271.5 C 54.6382,271.703 56.3049,272.703 57.5,274.5C 58.6652,273.509 59.8319,272.509 61,271.5C 61.5,271.667 62,271.833 62.5,272C 58.5664,275.793 58.5664,279.626 62.5,283.5C 62,283.833 61.5,284.167 61,284.5C 59.6736,283.201 58.3402,281.868 57,280.5C 56.044,281.579 55.2106,282.745 54.5,284C 53.5,284.667 52.5,284.667 51.5,284C 53.0874,282.155 54.4208,280.155 55.5,278C 54.0944,276.022 53.0944,273.855 52.5,271.5 Z"/></g>
<g><path style="opacity:1" fill="#bab6ae" d="M 74.5,271.5 C 76.6382,271.703 78.3049,272.703 79.5,274.5C 80.6652,273.509 81.8319,272.509 83,271.5C 83.5,271.667 84,271.833 84.5,272C 80.5664,275.793 80.5664,279.626 84.5,283.5C 84,283.833 83.5,284.167 83,284.5C 81.6736,283.201 80.3402,281.868 79,280.5C 78.044,281.579 77.2106,282.745 76.5,284C 75.5,284.667 74.5,284.667 73.5,284C 75.0874,282.155 76.4208,280.155 77.5,278C 76.0944,276.022 75.0944,273.855 74.5,271.5 Z"/></g>
<g><path style="opacity:1" fill="#bab6ae" d="M 96.5,271.5 C 98.6382,271.703 100.305,272.703 101.5,274.5C 102.665,273.509 103.832,272.509 105,271.5C 105.5,271.667 106,271.833 106.5,272C 102.566,275.793 102.566,279.626 106.5,283.5C 106,283.833 105.5,284.167 105,284.5C 103.674,283.201 102.34,281.868 101,280.5C 100.044,281.579 99.2106,282.745 98.5,284C 97.5,284.667 96.5,284.667 95.5,284C 97.0874,282.155 98.4208,280.155 99.5,278C 98.0944,276.022 97.0944,273.855 96.5,271.5 Z"/></g>
<g><path style="opacity:1" fill="#bab6ae" d="M 118.5,271.5 C 120.638,271.703 122.305,272.703 123.5,274.5C 124.665,273.509 125.832,272.509 127,271.5C 127.5,271.667 128,271.833 128.5,272C 124.566,275.793 124.566,279.626 128.5,283.5C 128,283.833 127.5,284.167 127,284.5C 125.674,283.201 124.34,281.868 123,280.5C 122.044,281.579 121.211,282.745 120.5,284C 119.5,284.667 118.5,284.667 117.5,284C 119.087,282.155 120.421,280.155 121.5,278C 120.094,276.022 119.094,273.855 118.5,271.5 Z"/></g>
<g><path style="opacity:1" fill="#bab6ae" d="M 140.5,271.5 C 142.638,271.703 144.305,272.703 145.5,274.5C 146.665,273.509 147.832,272.509 149,271.5C 149.5,271.667 150,271.833 150.5,272C 146.566,275.793 146.566,279.626 150.5,283.5C 150,283.833 149.5,284.167 149,284.5C 147.674,283.201 146.34,281.868 145,280.5C 144.044,281.579 143.211,282.745 142.5,284C 141.5,284.667 140.5,284.667 139.5,284C 141.087,282.155 142.421,280.155 143.5,278C 142.094,276.022 141.094,273.855 140.5,271.5 Z"/></g>
<g><path style="opacity:1" fill="#94abba" d="M 186.5,275.5 C 186.5,276.833 186.5,278.167 186.5,279.5C 184.439,278.249 184.106,276.582 185.5,274.5C 186.107,274.624 186.44,274.957 186.5,275.5 Z"/></g>
<g><path style="opacity:1" fill="#acb2b1" d="M 186.5,280.5 C 187.458,280.953 188.292,281.619 189,282.5C 189.464,281.906 189.631,281.239 189.5,280.5C 191.081,278.858 191.747,276.858 191.5,274.5C 192.552,274.351 193.552,274.517 194.5,275C 193.839,278.137 192.505,280.97 190.5,283.5C 187.936,284.564 186.603,283.564 186.5,280.5 Z"/></g>
<g><path style="opacity:1" fill="#b9bdb9" d="M 10.5,271.5 C 11.8589,272.007 12.8589,273.007 13.5,274.5C 14.1667,273.5 14.8333,272.5 15.5,271.5C 16.3539,272.948 17.3539,274.281 18.5,275.5C 15.8333,276.833 15.8333,278.167 18.5,279.5C 17.675,280.386 16.675,280.719 15.5,280.5C 15.0583,285.694 14.0583,285.694 12.5,280.5C 11.8333,281.833 11.1667,283.167 10.5,284.5C 9.75152,282.668 8.75152,281.001 7.5,279.5C 10.715,278.552 11.0484,277.219 8.5,275.5C 9.85318,274.476 10.5198,273.143 10.5,271.5 Z"/></g>
<g><path style="opacity:1" fill="#233062" d="M 12.5,276.5 C 14.337,276.639 14.6704,277.306 13.5,278.5C 12.7025,278.043 12.3691,277.376 12.5,276.5 Z"/></g>
<g><path style="opacity:1" fill="#b9bdb9" d="M 164.5,271.5 C 165.859,272.007 166.859,273.007 167.5,274.5C 168.167,273.5 168.833,272.5 169.5,271.5C 170.354,272.948 171.354,274.281 172.5,275.5C 169.833,276.833 169.833,278.167 172.5,279.5C 171.675,280.386 170.675,280.719 169.5,280.5C 169.058,285.694 168.058,285.694 166.5,280.5C 165.833,281.833 165.167,283.167 164.5,284.5C 163.752,282.668 162.752,281.001 161.5,279.5C 164.715,278.552 165.048,277.219 162.5,275.5C 163.853,274.476 164.52,273.143 164.5,271.5 Z"/></g>
<g><path style="opacity:1" fill="#233062" d="M 166.5,276.5 C 168.337,276.639 168.67,277.306 167.5,278.5C 166.702,278.043 166.369,277.376 166.5,276.5 Z"/></g>
<g><path style="opacity:1" fill="#babeb9" d="M 213.5,272.5 C 214.043,272.56 214.376,272.893 214.5,273.5C 213.167,275.167 211.833,276.833 210.5,278.5C 211.48,279.981 212.647,281.315 214,282.5C 214.667,283.167 214.667,283.833 214,284.5C 211.357,283.024 209.19,281.024 207.5,278.5C 209.215,276.118 211.215,274.118 213.5,272.5 Z"/></g>
<g><path style="opacity:1" fill="#babeb9" d="M 235.5,272.5 C 236.043,272.56 236.376,272.893 236.5,273.5C 235.167,275.167 233.833,276.833 232.5,278.5C 233.48,279.981 234.647,281.315 236,282.5C 236.667,283.167 236.667,283.833 236,284.5C 233.357,283.024 231.19,281.024 229.5,278.5C 231.215,276.118 233.215,274.118 235.5,272.5 Z"/></g>
<g><path style="opacity:1" fill="#b9bdb9" d="M 252.5,271.5 C 253.859,272.007 254.859,273.007 255.5,274.5C 256.167,273.5 256.833,272.5 257.5,271.5C 258.354,272.948 259.354,274.281 260.5,275.5C 257.833,276.833 257.833,278.167 260.5,279.5C 259.675,280.386 258.675,280.719 257.5,280.5C 257.058,285.694 256.058,285.694 254.5,280.5C 253.833,281.833 253.167,283.167 252.5,284.5C 251.752,282.668 250.752,281.001 249.5,279.5C 252.715,278.552 253.048,277.219 250.5,275.5C 251.853,274.476 252.52,273.143 252.5,271.5 Z"/></g>
<g><path style="opacity:1" fill="#233062" d="M 254.5,276.5 C 256.337,276.639 256.67,277.306 255.5,278.5C 254.702,278.043 254.369,277.376 254.5,276.5 Z"/></g>
<g><path style="opacity:1" fill="#b99770" d="M 186.5,275.5 C 187.687,277.072 188.687,278.739 189.5,280.5C 189.631,281.239 189.464,281.906 189,282.5C 188.292,281.619 187.458,280.953 186.5,280.5C 186.5,280.167 186.5,279.833 186.5,279.5C 186.5,278.167 186.5,276.833 186.5,275.5 Z"/></g>
<g><path style="opacity:1" fill="#c9c6bc" d="M 185.5,297.5 C 188.247,297.187 190.914,297.52 193.5,298.5C 191.604,299.466 189.604,299.799 187.5,299.5C 187.5,300.5 187.5,301.5 187.5,302.5C 195.5,303.167 195.5,303.833 187.5,304.5C 187.5,305.833 187.5,307.167 187.5,308.5C 189.604,308.201 191.604,308.534 193.5,309.5C 190.914,310.48 188.247,310.813 185.5,310.5C 185.5,306.167 185.5,301.833 185.5,297.5 Z"/></g>
<g><path style="opacity:1" fill="#b9bdb9" d="M 10.5,297.5 C 11.8589,298.007 12.8589,299.007 13.5,300.5C 14.1667,299.5 14.8333,298.5 15.5,297.5C 16.3539,298.948 17.3539,300.281 18.5,301.5C 15.8333,302.833 15.8333,304.167 18.5,305.5C 17.675,306.386 16.675,306.719 15.5,306.5C 15.0583,311.694 14.0583,311.694 12.5,306.5C 11.8333,307.833 11.1667,309.167 10.5,310.5C 9.75152,308.668 8.75152,307.001 7.5,305.5C 10.715,304.552 11.0484,303.219 8.5,301.5C 9.85318,300.476 10.5198,299.143 10.5,297.5 Z"/></g>
<g><path style="opacity:1" fill="#233062" d="M 12.5,302.5 C 14.337,302.639 14.6704,303.306 13.5,304.5C 12.7025,304.043 12.3691,303.376 12.5,302.5 Z"/></g>
<g><path style="opacity:1" fill="#b9bdb9" d="M 32.5,297.5 C 33.8589,298.007 34.8589,299.007 35.5,300.5C 36.1667,299.5 36.8333,298.5 37.5,297.5C 38.3539,298.948 39.3539,300.281 40.5,301.5C 37.8333,302.833 37.8333,304.167 40.5,305.5C 39.675,306.386 38.675,306.719 37.5,306.5C 37.0583,311.694 36.0583,311.694 34.5,306.5C 33.8333,307.833 33.1667,309.167 32.5,310.5C 31.7515,308.668 30.7515,307.001 29.5,305.5C 32.715,304.552 33.0484,303.219 30.5,301.5C 31.8532,300.476 32.5198,299.143 32.5,297.5 Z"/></g>
<g><path style="opacity:1" fill="#233062" d="M 34.5,302.5 C 36.337,302.639 36.6704,303.306 35.5,304.5C 34.7025,304.043 34.3691,303.376 34.5,302.5 Z"/></g>
<g><path style="opacity:1" fill="#b9bdb9" d="M 54.5,297.5 C 55.8589,298.007 56.8589,299.007 57.5,300.5C 58.1667,299.5 58.8333,298.5 59.5,297.5C 60.3539,298.948 61.3539,300.281 62.5,301.5C 59.8333,302.833 59.8333,304.167 62.5,305.5C 61.675,306.386 60.675,306.719 59.5,306.5C 59.0583,311.694 58.0583,311.694 56.5,306.5C 55.8333,307.833 55.1667,309.167 54.5,310.5C 53.7515,308.668 52.7515,307.001 51.5,305.5C 54.715,304.552 55.0484,303.219 52.5,301.5C 53.8532,300.476 54.5198,299.143 54.5,297.5 Z"/></g>
<g><path style="opacity:1" fill="#233062" d="M 56.5,302.5 C 58.337,302.639 58.6704,303.306 57.5,304.5C 56.7025,304.043 56.3691,303.376 56.5,302.5 Z"/></g>
<g><path style="opacity:1" fill="#b9bdb9" d="M 76.5,297.5 C 77.8589,298.007 78.8589,299.007 79.5,300.5C 80.1667,299.5 80.8333,298.5 81.5,297.5C 82.3539,298.948 83.3539,300.281 84.5,301.5C 81.8333,302.833 81.8333,304.167 84.5,305.5C 83.675,306.386 82.675,306.719 81.5,306.5C 81.0583,311.694 80.0583,311.694 78.5,306.5C 77.8333,307.833 77.1667,309.167 76.5,310.5C 75.7515,308.668 74.7515,307.001 73.5,305.5C 76.715,304.552 77.0484,303.219 74.5,301.5C 75.8532,300.476 76.5198,299.143 76.5,297.5 Z"/></g>
<g><path style="opacity:1" fill="#233062" d="M 78.5,302.5 C 80.337,302.639 80.6704,303.306 79.5,304.5C 78.7025,304.043 78.3691,303.376 78.5,302.5 Z"/></g>
<g><path style="opacity:1" fill="#b9bdb9" d="M 98.5,297.5 C 99.8589,298.007 100.859,299.007 101.5,300.5C 102.167,299.5 102.833,298.5 103.5,297.5C 104.354,298.948 105.354,300.281 106.5,301.5C 103.833,302.833 103.833,304.167 106.5,305.5C 105.675,306.386 104.675,306.719 103.5,306.5C 103.058,311.694 102.058,311.694 100.5,306.5C 99.8333,307.833 99.1667,309.167 98.5,310.5C 97.7515,308.668 96.7515,307.001 95.5,305.5C 98.715,304.552 99.0484,303.219 96.5,301.5C 97.8532,300.476 98.5198,299.143 98.5,297.5 Z"/></g>
<g><path style="opacity:1" fill="#233062" d="M 100.5,302.5 C 102.337,302.639 102.67,303.306 101.5,304.5C 100.702,304.043 100.369,303.376 100.5,302.5 Z"/></g>
<g><path style="opacity:1" fill="#b9bdb9" d="M 120.5,297.5 C 121.859,298.007 122.859,299.007 123.5,300.5C 124.167,299.5 124.833,298.5 125.5,297.5C 126.354,298.948 127.354,300.281 128.5,301.5C 125.833,302.833 125.833,304.167 128.5,305.5C 127.675,306.386 126.675,306.719 125.5,306.5C 125.058,311.694 124.058,311.694 122.5,306.5C 121.833,307.833 121.167,309.167 120.5,310.5C 119.752,308.668 118.752,307.001 117.5,305.5C 120.715,304.552 121.048,303.219 118.5,301.5C 119.853,300.476 120.52,299.143 120.5,297.5 Z"/></g>
<g><path style="opacity:1" fill="#233062" d="M 122.5,302.5 C 124.337,302.639 124.67,303.306 123.5,304.5C 122.702,304.043 122.369,303.376 122.5,302.5 Z"/></g>
<g><path style="opacity:1" fill="#b9bdb9" d="M 142.5,297.5 C 143.859,298.007 144.859,299.007 145.5,300.5C 146.167,299.5 146.833,298.5 147.5,297.5C 148.354,298.948 149.354,300.281 150.5,301.5C 147.833,302.833 147.833,304.167 150.5,305.5C 149.675,306.386 148.675,306.719 147.5,306.5C 147.058,311.694 146.058,311.694 144.5,306.5C 143.833,307.833 143.167,309.167 142.5,310.5C 141.752,308.668 140.752,307.001 139.5,305.5C 142.715,304.552 143.048,303.219 140.5,301.5C 141.853,300.476 142.52,299.143 142.5,297.5 Z"/></g>
<g><path style="opacity:1" fill="#233062" d="M 144.5,302.5 C 146.337,302.639 146.67,303.306 145.5,304.5C 144.702,304.043 144.369,303.376 144.5,302.5 Z"/></g>
<g><path style="opacity:1" fill="#b9bdb9" d="M 164.5,297.5 C 165.859,298.007 166.859,299.007 167.5,300.5C 168.167,299.5 168.833,298.5 169.5,297.5C 170.354,298.948 171.354,300.281 172.5,301.5C 169.833,302.833 169.833,304.167 172.5,305.5C 171.675,306.386 170.675,306.719 169.5,306.5C 169.058,311.694 168.058,311.694 166.5,306.5C 165.833,307.833 165.167,309.167 164.5,310.5C 163.752,308.668 162.752,307.001 161.5,305.5C 164.715,304.552 165.048,303.219 162.5,301.5C 163.853,300.476 164.52,299.143 164.5,297.5 Z"/></g>
<g><path style="opacity:1" fill="#233062" d="M 166.5,302.5 C 168.337,302.639 168.67,303.306 167.5,304.5C 166.702,304.043 166.369,303.376 166.5,302.5 Z"/></g>
<g><path style="opacity:1" fill="#b9bdb9" d="M 208.5,297.5 C 209.859,298.007 210.859,299.007 211.5,300.5C 212.167,299.5 212.833,298.5 213.5,297.5C 214.354,298.948 215.354,300.281 216.5,301.5C 213.833,302.833 213.833,304.167 216.5,305.5C 215.675,306.386 214.675,306.719 213.5,306.5C 213.058,311.694 212.058,311.694 210.5,306.5C 209.833,307.833 209.167,309.167 208.5,310.5C 207.752,308.668 206.752,307.001 205.5,305.5C 208.715,304.552 209.048,303.219 206.5,301.5C 207.853,300.476 208.52,299.143 208.5,297.5 Z"/></g>
<g><path style="opacity:1" fill="#233062" d="M 210.5,302.5 C 212.337,302.639 212.67,303.306 211.5,304.5C 210.702,304.043 210.369,303.376 210.5,302.5 Z"/></g>
<g><path style="opacity:1" fill="#b9bdb9" d="M 230.5,297.5 C 231.859,298.007 232.859,299.007 233.5,300.5C 234.167,299.5 234.833,298.5 235.5,297.5C 236.354,298.948 237.354,300.281 238.5,301.5C 235.833,302.833 235.833,304.167 238.5,305.5C 237.675,306.386 236.675,306.719 235.5,306.5C 235.058,311.694 234.058,311.694 232.5,306.5C 231.833,307.833 231.167,309.167 230.5,310.5C 229.752,308.668 228.752,307.001 227.5,305.5C 230.715,304.552 231.048,303.219 228.5,301.5C 229.853,300.476 230.52,299.143 230.5,297.5 Z"/></g>
<g><path style="opacity:1" fill="#233062" d="M 232.5,302.5 C 234.337,302.639 234.67,303.306 233.5,304.5C 232.702,304.043 232.369,303.376 232.5,302.5 Z"/></g>
<g><path style="opacity:1" fill="#b9bdb9" d="M 252.5,297.5 C 253.859,298.007 254.859,299.007 255.5,300.5C 256.167,299.5 256.833,298.5 257.5,297.5C 258.354,298.948 259.354,300.281 260.5,301.5C 257.833,302.833 257.833,304.167 260.5,305.5C 259.675,306.386 258.675,306.719 257.5,306.5C 257.058,311.694 256.058,311.694 254.5,306.5C 253.833,307.833 253.167,309.167 252.5,310.5C 251.752,308.668 250.752,307.001 249.5,305.5C 252.715,304.552 253.048,303.219 250.5,301.5C 251.853,300.476 252.52,299.143 252.5,297.5 Z"/></g>
<g><path style="opacity:1" fill="#233062" d="M 254.5,302.5 C 256.337,302.639 256.67,303.306 255.5,304.5C 254.702,304.043 254.369,303.376 254.5,302.5 Z"/></g>
<g><path style="opacity:1" fill="#b1bbbf" d="M 110.5,321.5 C 111.5,321.5 112.5,321.5 113.5,321.5C 113.5,322.5 113.5,323.5 113.5,324.5C 112.5,324.5 111.5,324.5 110.5,324.5C 110.5,323.5 110.5,322.5 110.5,321.5 Z"/></g>
<g><path style="opacity:1" fill="#bbbab1" d="M 228.5,323.5 C 231.833,323.5 235.167,323.5 238.5,323.5C 236.975,328.214 234.641,332.547 231.5,336.5C 230.417,335.635 230.251,334.635 231,333.5C 232.626,331.083 234.126,328.583 235.5,326C 232.639,326.03 230.305,325.197 228.5,323.5 Z"/></g>
<g><path style="opacity:1" fill="#bbbab1" d="M 283.5,323.5 C 286.833,323.5 290.167,323.5 293.5,323.5C 291.975,328.214 289.641,332.547 286.5,336.5C 285.417,335.635 285.251,334.635 286,333.5C 287.626,331.083 289.126,328.583 290.5,326C 287.639,326.03 285.305,325.197 283.5,323.5 Z"/></g>
<g><path style="opacity:1" fill="#bbbab1" d="M 338.5,323.5 C 341.833,323.5 345.167,323.5 348.5,323.5C 346.975,328.214 344.641,332.547 341.5,336.5C 340.417,335.635 340.251,334.635 341,333.5C 342.626,331.083 344.126,328.583 345.5,326C 342.639,326.03 340.305,325.197 338.5,323.5 Z"/></g>
<g><path style="opacity:1" fill="#b2b3ae" d="M 98.5,323.5 C 99.5,323.5 100.5,323.5 101.5,323.5C 101.5,324.5 101.5,325.5 101.5,326.5C 106.833,327.167 106.833,327.833 101.5,328.5C 101.5,330.5 101.5,332.5 101.5,334.5C 102.978,334.238 104.311,334.571 105.5,335.5C 99.0764,337.675 96.7431,335.342 98.5,328.5C 94.5,327.833 94.5,327.167 98.5,326.5C 98.5,325.5 98.5,324.5 98.5,323.5 Z"/></g>
<g><path style="opacity:1" fill="#bab9b4" d="M 54.5,326.5 C 56.5,326.5 58.5,326.5 60.5,326.5C 60.6495,327.552 60.4828,328.552 60,329.5C 58.8173,328.269 57.6507,328.269 56.5,329.5C 57.7357,330.357 59.069,331.023 60.5,331.5C 61.8333,332.833 61.8333,334.167 60.5,335.5C 58.2534,336.374 55.9201,336.708 53.5,336.5C 53.3505,335.448 53.5172,334.448 54,333.5C 55.4936,334.747 56.9936,334.747 58.5,333.5C 54.432,332.483 53.0987,330.15 54.5,326.5 Z"/></g>
<g><path style="opacity:1" fill="#b9c1bc" d="M 81.5,322.5 C 82.8048,324.397 83.4714,326.731 83.5,329.5C 83.1667,331.833 82.8333,334.167 82.5,336.5C 80.259,336.502 77.9257,336.168 75.5,335.5C 72.8015,329.229 74.8015,326.229 81.5,326.5C 81.5,325.167 81.5,323.833 81.5,322.5 Z"/></g>
<g><path style="opacity:1" fill="#c2bfb0" d="M 118.5,326.5 C 121.935,327.368 125.269,327.368 128.5,326.5C 128.82,329.898 128.487,333.232 127.5,336.5C 126.614,326.038 125.281,326.038 123.5,336.5C 122.614,326.038 121.281,326.038 119.5,336.5C 118.513,333.232 118.18,329.898 118.5,326.5 Z"/></g>
<g><path style="opacity:1" fill="#bab9b4" d="M 384.5,326.5 C 386.5,326.5 388.5,326.5 390.5,326.5C 390.649,327.552 390.483,328.552 390,329.5C 388.817,328.269 387.651,328.269 386.5,329.5C 387.736,330.357 389.069,331.023 390.5,331.5C 391.833,332.833 391.833,334.167 390.5,335.5C 388.253,336.374 385.92,336.708 383.5,336.5C 383.351,335.448 383.517,334.448 384,333.5C 385.494,334.747 386.994,334.747 388.5,333.5C 384.432,332.483 383.099,330.15 384.5,326.5 Z"/></g>
<g><path style="opacity:1" fill="#bcb9b2" d="M 417.5,326.5 C 424.488,325.648 426.822,328.481 424.5,335C 415.838,337.501 413.504,334.668 417.5,326.5 Z"/></g>
<g><path style="opacity:1" fill="#b9c1bc" d="M 444.5,322.5 C 445.805,324.397 446.471,326.731 446.5,329.5C 446.167,331.833 445.833,334.167 445.5,336.5C 443.259,336.502 440.926,336.168 438.5,335.5C 435.801,329.229 437.801,326.229 444.5,326.5C 444.5,325.167 444.5,323.833 444.5,322.5 Z"/></g>
<g><path style="opacity:1" fill="#bab9b4" d="M 450.5,326.5 C 452.5,326.5 454.5,326.5 456.5,326.5C 456.649,327.552 456.483,328.552 456,329.5C 454.817,328.269 453.651,328.269 452.5,329.5C 453.736,330.357 455.069,331.023 456.5,331.5C 457.833,332.833 457.833,334.167 456.5,335.5C 454.253,336.374 451.92,336.708 449.5,336.5C 449.351,335.448 449.517,334.448 450,333.5C 451.494,334.747 452.994,334.747 454.5,333.5C 450.432,332.483 449.099,330.15 450.5,326.5 Z"/></g>
<g><path style="opacity:1" fill="#b0ada6" d="M 41.5,326.5 C 45.0071,325.994 48.1737,326.66 51,328.5C 52.324,334.009 50.1573,336.676 44.5,336.5C 44.5,337.833 44.5,339.167 44.5,340.5C 43.5,340.5 42.5,340.5 41.5,340.5C 41.5,335.833 41.5,331.167 41.5,326.5 Z"/></g>
<g><path style="opacity:1" fill="#bcad9a" d="M 143.5,326.5 C 148.833,327.5 148.833,328.5 143.5,329.5C 143.5,328.5 143.5,327.5 143.5,326.5 Z"/></g>
<g><path style="opacity:1" fill="#bcb8b1" d="M 164.5,323.5 C 172.003,322.853 174.503,326.186 172,333.5C 169.339,336.966 166.339,337.299 163,334.5C 162.013,330.525 162.513,326.859 164.5,323.5 Z"/></g>
<g><path style="opacity:1" fill="#241c26" d="M 166.5,325.5 C 170.225,326.915 169.892,328.248 165.5,329.5C 165.167,329.167 164.833,328.833 164.5,328.5C 165.193,327.482 165.859,326.482 166.5,325.5 Z"/></g>
<g><path style="opacity:1" fill="#bbbcba" d="M 193.5,325.5 C 193.5,328.167 193.5,330.833 193.5,333.5C 192.027,336.247 189.694,337.081 186.5,336C 184.972,334.352 184.305,332.352 184.5,330C 184.261,324.246 186.928,322.246 192.5,324C 193.056,324.383 193.389,324.883 193.5,325.5 Z"/></g>
<g><path style="opacity:1" fill="#241c26" d="M 188.5,325.5 C 192.225,326.915 191.892,328.248 187.5,329.5C 187.167,329.167 186.833,328.833 186.5,328.5C 187.193,327.482 187.859,326.482 188.5,325.5 Z"/></g>
<g><path style="opacity:1" fill="#bcb8b1" d="M 208.5,323.5 C 216.003,322.853 218.503,326.186 216,333.5C 213.339,336.966 210.339,337.299 207,334.5C 206.013,330.525 206.513,326.859 208.5,323.5 Z"/></g>
<g><path style="opacity:1" fill="#241c26" d="M 210.5,325.5 C 214.225,326.915 213.892,328.248 209.5,329.5C 209.167,329.167 208.833,328.833 208.5,328.5C 209.193,327.482 209.859,326.482 210.5,325.5 Z"/></g>
<g><path style="opacity:1" fill="#bcb8b1" d="M 263.5,323.5 C 271.003,322.853 273.503,326.186 271,333.5C 268.339,336.966 265.339,337.299 262,334.5C 261.013,330.525 261.513,326.859 263.5,323.5 Z"/></g>
<g><path style="opacity:1" fill="#241c26" d="M 265.5,325.5 C 269.225,326.915 268.892,328.248 264.5,329.5C 264.167,329.167 263.833,328.833 263.5,328.5C 264.193,327.482 264.859,326.482 265.5,325.5 Z"/></g>
<g><path style="opacity:1" fill="#afb1aa" d="M 426.5,326.5 C 435.229,324.805 437.895,328.138 434.5,336.5C 433.686,334.234 433.186,331.9 433,329.5C 432,328.167 431,328.167 430,329.5C 429.503,331.81 429.337,334.143 429.5,336.5C 428.5,336.5 427.5,336.5 426.5,336.5C 426.5,333.167 426.5,329.833 426.5,326.5 Z"/></g>
<g><path style="opacity:1" fill="#c9c6bc" d="M 9.5,323.5 C 12.2469,323.187 14.9135,323.52 17.5,324.5C 15.604,325.466 13.604,325.799 11.5,325.5C 11.5,326.5 11.5,327.5 11.5,328.5C 19.5,329.167 19.5,329.833 11.5,330.5C 11.5,331.833 11.5,333.167 11.5,334.5C 13.604,334.201 15.604,334.534 17.5,335.5C 14.9135,336.48 12.2469,336.813 9.5,336.5C 9.5,332.167 9.5,327.833 9.5,323.5 Z"/></g>
<g><path style="opacity:1" fill="#201f21" d="M 45.5,328.5 C 46.5,328.5 47.5,328.5 48.5,328.5C 49.4015,332.241 48.0681,334.241 44.5,334.5C 44.3253,332.379 44.6586,330.379 45.5,328.5 Z"/></g>
<g><path style="opacity:1" fill="#342029" d="M 77.5,328.5 C 78.8333,328.5 80.1667,328.5 81.5,328.5C 81.9783,331.278 80.9783,333.278 78.5,334.5C 76.261,332.867 75.9277,330.867 77.5,328.5 Z"/></g>
<g><path style="opacity:1" fill="#bcbbb6" d="M 240.5,323.5 C 242.527,323.338 244.527,323.505 246.5,324C 249.003,325.549 249.003,327.216 246.5,329C 249.167,331.333 249.167,333.667 246.5,336C 244.098,336.814 241.765,336.647 239.5,335.5C 242.184,335.024 244.517,334.024 246.5,332.5C 245.176,331.065 243.51,330.065 241.5,329.5C 243.149,328.852 244.482,327.852 245.5,326.5C 244.224,325.355 242.891,325.355 241.5,326.5C 240.614,325.675 240.281,324.675 240.5,323.5 Z"/></g>
<g><path style="opacity:1" fill="#b6b6b3" d="M 319.5,323.5 C 321.604,323.201 323.604,323.534 325.5,324.5C 323.149,325.012 321.149,326.012 319.5,327.5C 324.395,327.554 326.562,329.888 326,334.5C 317.96,338.142 314.96,335.475 317,326.5C 318.045,325.627 318.878,324.627 319.5,323.5 Z"/></g>
<g><path style="opacity:1" fill="#c3c3ba" d="M 328.5,323.5 C 331.247,323.187 333.914,323.52 336.5,324.5C 334.604,325.466 332.604,325.799 330.5,325.5C 330.5,326.5 330.5,327.5 330.5,328.5C 335.327,327.848 337.16,329.848 336,334.5C 333.782,336.619 331.282,336.952 328.5,335.5C 336.489,333.191 336.489,331.524 328.5,330.5C 328.5,328.167 328.5,325.833 328.5,323.5 Z"/></g>
<g><path style="opacity:1" fill="#bcbbb6" d="M 361.5,323.5 C 363.527,323.338 365.527,323.505 367.5,324C 370.003,325.549 370.003,327.216 367.5,329C 370.167,331.333 370.167,333.667 367.5,336C 365.098,336.814 362.765,336.647 360.5,335.5C 363.184,335.024 365.517,334.024 367.5,332.5C 366.176,331.065 364.51,330.065 362.5,329.5C 364.149,328.852 365.482,327.852 366.5,326.5C 365.224,325.355 363.891,325.355 362.5,326.5C 361.614,325.675 361.281,324.675 361.5,323.5 Z"/></g>
<g><path style="opacity:1" fill="#271f1d" d="M 418.5,328.5 C 422.35,328.701 423.35,330.534 421.5,334C 417.537,334.118 416.537,332.284 418.5,328.5 Z"/></g>
<g><path style="opacity:1" fill="#342029" d="M 440.5,328.5 C 441.833,328.5 443.167,328.5 444.5,328.5C 444.978,331.278 443.978,333.278 441.5,334.5C 439.261,332.867 438.928,330.867 440.5,328.5 Z"/></g>
<g><path style="opacity:1" fill="#bcbcb7" d="M 219.5,323.5 C 221.591,323.318 223.591,323.652 225.5,324.5C 226.655,327.446 226.821,330.446 226,333.5C 224.112,336.379 221.612,337.045 218.5,335.5C 220.655,334.59 222.655,333.423 224.5,332C 217.395,332.254 215.729,329.421 219.5,323.5 Z"/></g>
<g><path style="opacity:1" fill="#2c2023" d="M 220.5,325.5 C 223.166,325.066 224.333,326.066 224,328.5C 220.403,330.066 219.237,329.066 220.5,325.5 Z"/></g>
<g><path style="opacity:1" fill="#bcbcb7" d="M 252.5,323.5 C 254.591,323.318 256.591,323.652 258.5,324.5C 259.655,327.446 259.821,330.446 259,333.5C 257.112,336.379 254.612,337.045 251.5,335.5C 253.655,334.59 255.655,333.423 257.5,332C 250.395,332.254 248.729,329.421 252.5,323.5 Z"/></g>
<g><path style="opacity:1" fill="#2c2023" d="M 253.5,325.5 C 256.166,325.066 257.333,326.066 257,328.5C 253.403,330.066 252.237,329.066 253.5,325.5 Z"/></g>
<g><path style="opacity:1" fill="#bec0bf" d="M 32.5,326.5 C 34.7925,326.244 36.9592,326.577 39,327.5C 39.498,330.482 39.6646,333.482 39.5,336.5C 36.5525,336.777 33.7191,336.444 31,335.5C 30.2195,334.056 30.3861,332.723 31.5,331.5C 33.444,330.811 35.444,330.311 37.5,330C 36.0099,328.228 34.3432,328.061 32.5,329.5C 31.4376,328.575 31.4376,327.575 32.5,326.5 Z"/></g>
<g><path style="opacity:1" fill="#c1beb8" d="M 65.5,326.5 C 70.5601,325.668 73.2267,327.668 73.5,332.5C 63.4491,332.095 63.1158,333.095 72.5,335.5C 63.7819,337.449 61.4486,334.449 65.5,326.5 Z"/></g>
<g><path style="opacity:1" fill="#2f241b" d="M 66.5,328.5 C 68.1033,328.312 69.4366,328.812 70.5,330C 68.8333,330.667 67.1667,330.667 65.5,330C 66.056,329.617 66.3893,329.117 66.5,328.5 Z"/></g>
<g><path style="opacity:1" fill="#c1beb8" d="M 131.5,326.5 C 136.56,325.668 139.227,327.668 139.5,332.5C 129.449,332.095 129.116,333.095 138.5,335.5C 129.782,337.449 127.449,334.449 131.5,326.5 Z"/></g>
<g><path style="opacity:1" fill="#2f241b" d="M 132.5,328.5 C 134.103,328.312 135.437,328.812 136.5,330C 134.833,330.667 133.167,330.667 131.5,330C 132.056,329.617 132.389,329.117 132.5,328.5 Z"/></g>
<g><path style="opacity:1" fill="#282220" d="M 167.5,330.5 C 170.041,331.623 170.041,332.956 167.5,334.5C 164.875,333.135 164.875,331.802 167.5,330.5 Z"/></g>
<g><path style="opacity:1" fill="#282220" d="M 189.5,330.5 C 192.041,331.623 192.041,332.956 189.5,334.5C 186.875,333.135 186.875,331.802 189.5,330.5 Z"/></g>
<g><path style="opacity:1" fill="#282220" d="M 211.5,330.5 C 214.041,331.623 214.041,332.956 211.5,334.5C 208.875,333.135 208.875,331.802 211.5,330.5 Z"/></g>
<g><path style="opacity:1" fill="#282220" d="M 266.5,330.5 C 269.041,331.623 269.041,332.956 266.5,334.5C 263.875,333.135 263.875,331.802 266.5,330.5 Z"/></g>
<g><path style="opacity:1" fill="#352b28" d="M 319.5,330.5 C 320.833,330.5 322.167,330.5 323.5,330.5C 323.5,331.833 323.5,333.167 323.5,334.5C 319.56,335.234 318.227,333.901 319.5,330.5 Z"/></g>
<g><path style="opacity:1" fill="#c1beb8" d="M 395.5,326.5 C 400.56,325.668 403.227,327.668 403.5,332.5C 393.449,332.095 393.116,333.095 402.5,335.5C 393.782,337.449 391.449,334.449 395.5,326.5 Z"/></g>
<g><path style="opacity:1" fill="#2f241b" d="M 396.5,328.5 C 398.103,328.312 399.437,328.812 400.5,330C 398.833,330.667 397.167,330.667 395.5,330C 396.056,329.617 396.389,329.117 396.5,328.5 Z"/></g>
<g><path style="opacity:1" fill="#c0baaf" d="M 193.5,333.5 C 193.5,330.833 193.5,328.167 193.5,325.5C 194.302,326.952 194.802,328.618 195,330.5C 196.715,328.241 198.548,326.074 200.5,324C 201.448,323.517 202.448,323.351 203.5,323.5C 203.073,326.788 203.74,329.788 205.5,332.5C 204.354,333.719 203.354,335.052 202.5,336.5C 201.614,335.675 201.281,334.675 201.5,333.5C 198.833,333.5 196.167,333.5 193.5,333.5 Z"/></g>
<g><path style="opacity:1" fill="#322b39" d="M 200.5,326.5 C 201.451,327.919 201.784,329.585 201.5,331.5C 200.127,331.657 198.793,331.49 197.5,331C 198.386,329.385 199.386,327.885 200.5,326.5 Z"/></g>
<g><path style="opacity:1" fill="#bfbfba" d="M 299.5,323.5 C 300.5,323.5 301.5,323.5 302.5,323.5C 302.073,326.788 302.74,329.788 304.5,332.5C 303.354,333.719 302.354,335.052 301.5,336.5C 300.614,335.675 300.281,334.675 300.5,333.5C 298.167,333.5 295.833,333.5 293.5,333.5C 294.967,329.907 296.967,326.574 299.5,323.5 Z"/></g>
<g><path style="opacity:1" fill="#322b39" d="M 299.5,326.5 C 300.451,327.919 300.784,329.585 300.5,331.5C 299.127,331.657 297.793,331.49 296.5,331C 297.386,329.385 298.386,327.885 299.5,326.5 Z"/></g>
<g><path style="opacity:1" fill="#292431" d="M 33.5,332.5 C 37.5878,332.218 38.0878,332.885 35,334.5C 33.9701,334.164 33.4701,333.497 33.5,332.5 Z"/></g>
<g><path style="opacity:1" fill="#b7ad9e" d="M 176.5,333.5 C 177.833,333.5 179.167,333.5 180.5,333.5C 180.5,334.5 180.5,335.5 180.5,336.5C 179.167,336.5 177.833,336.5 176.5,336.5C 176.5,335.5 176.5,334.5 176.5,333.5 Z"/></g>
<g><path style="opacity:1" fill="#bcb9b3" d="M 351.5,323.5 C 360.194,324.859 360.861,328.359 353.5,334C 355.577,334.192 357.577,334.692 359.5,335.5C 349.087,337.932 347.587,335.932 355,329.5C 355.49,328.207 355.657,326.873 355.5,325.5C 354.07,325.421 352.736,325.754 351.5,326.5C 350.438,325.575 350.438,324.575 351.5,323.5 Z"/></g>
<g><path style="opacity:1" fill="#bbc2bd" d="M 20.5,322.5 C 22.1667,322.5 23.8333,322.5 25.5,322.5C 25.5,326.5 25.5,330.5 25.5,334.5C 26.675,334.281 27.675,334.614 28.5,335.5C 25.5,336.833 22.5,336.833 19.5,335.5C 20.6888,334.571 22.0222,334.238 23.5,334.5C 23.5,331.167 23.5,327.833 23.5,324.5C 21.8212,324.715 20.8212,324.048 20.5,322.5 Z"/></g>
<g><path style="opacity:1" fill="#bdc3bf" d="M 108.5,326.5 C 110.167,326.5 111.833,326.5 113.5,326.5C 113.5,329.167 113.5,331.833 113.5,334.5C 114.675,334.281 115.675,334.614 116.5,335.5C 113.5,336.833 110.5,336.833 107.5,335.5C 108.689,334.571 110.022,334.238 111.5,334.5C 111.5,332.5 111.5,330.5 111.5,328.5C 109.821,328.715 108.821,328.048 108.5,326.5 Z"/></g>
<g><path style="opacity:1" fill="#bcad9a" d="M 143.5,333.5 C 148.833,334.5 148.833,335.5 143.5,336.5C 143.5,335.5 143.5,334.5 143.5,333.5 Z"/></g>
<g><path style="opacity:1" fill="#beb1a3" d="M 275.5,323.5 C 276.833,323.5 278.167,323.5 279.5,323.5C 279.5,327.167 279.5,330.833 279.5,334.5C 280.675,334.281 281.675,334.614 282.5,335.5C 279.5,336.833 276.5,336.833 273.5,335.5C 274.325,334.614 275.325,334.281 276.5,334.5C 276.813,331.753 276.48,329.086 275.5,326.5C 274.313,327.894 273.646,327.727 273.5,326C 274.056,324.989 274.722,324.156 275.5,323.5 Z"/></g>
<g><path style="opacity:1" fill="#bfbcb5" d="M 307.5,323.5 C 313.359,322.074 315.359,324.074 313.5,329.5C 316.206,335.311 314.206,337.477 307.5,336C 305.033,333.957 305.033,331.79 307.5,329.5C 306.181,327.468 306.181,325.468 307.5,323.5 Z"/></g>
<g><path style="opacity:1" fill="#282529" d="M 309.5,330.5 C 311.532,331.048 312.532,332.381 312.5,334.5C 311.167,334.5 309.833,334.5 308.5,334.5C 308.433,333.041 308.766,331.708 309.5,330.5 Z"/></g>
<g><path style="opacity:1" fill="#2c292b" d="M 308.5,325.5 C 309.978,325.238 311.311,325.571 312.5,326.5C 310.537,329.194 309.203,328.861 308.5,325.5 Z"/></g>
<g><path style="opacity:1" fill="#c0bbb3" d="M 407.5,326.5 C 409.467,326.261 411.301,326.594 413,327.5C 413.688,328.332 413.521,328.998 412.5,329.5C 407.888,327.948 406.554,329.448 408.5,334C 410.112,334.72 411.612,334.554 413,333.5C 413.483,334.448 413.649,335.448 413.5,336.5C 405.665,336.778 403.665,333.444 407.5,326.5 Z"/></g>
</svg>
